<svg width="1512" height="982" viewBox="0 0 1512 982" fill="none" xmlns="http://www.w3.org/2000/svg">
<g clip-path="url(#clip0_1_2)">
<rect width="1512" height="982" fill="#C4EAFD"/>
<g clip-path="url(#clip1_1_2)">
<path d="M286.501 223.463C293.005 212.653 294.895 200.144 292.807 187.729C292.625 186.653 292.403 185.552 292.169 184.472C289.554 177.845 279.304 167.701 264.793 157.341C260.226 154.096 255.236 150.819 249.943 147.634C239.7 141.472 229.737 136.5 221.046 133.04C210.955 129.013 202.616 127.035 197.614 127.589C196.53 127.876 195.474 128.208 194.438 128.552C182.491 132.524 172.338 140.034 165.823 150.864C162.126 157.01 160.04 163.462 159.379 170.025C158.097 179.778 157.687 197.403 169.388 205.961C169.663 206.375 167.504 216.485 181.822 226.203C190.705 232.237 198.945 232.637 198.945 232.637C198.945 232.637 202.508 240.029 217.358 245.648C232.209 251.267 239.48 246.526 239.48 246.526C239.48 246.526 260.544 253.204 279.818 232.094C282.297 229.58 284.549 226.708 286.501 223.463Z" fill="#FF653C"/>
<path d="M292.285 189.514C289.344 194.402 274.82 191.41 256.445 182.925C249.824 179.881 242.709 176.097 235.448 171.729C223.217 164.372 212.668 156.562 205.082 149.567C195.703 140.914 190.897 133.52 193.105 129.849C193.423 129.322 193.87 128.9 194.438 128.552C195.263 128.053 196.339 127.734 197.614 127.589C202.616 127.035 210.955 129.013 221.046 133.04C229.716 136.488 239.7 141.472 249.943 147.634C255.236 150.819 260.226 154.096 264.793 157.341C279.304 167.701 289.554 177.845 292.169 184.472C292.647 185.699 292.881 186.779 292.807 187.729C292.765 188.394 292.602 188.987 292.285 189.514Z" fill="#FF846C"/>
<path d="M330.796 116.086C330.431 115.729 330.041 115.412 329.575 115.131C326.553 113.313 322.622 114.291 320.804 117.313C319.23 119.929 319.746 123.25 321.903 125.266C312.538 133.029 298.489 139.438 279.298 134.882L276.501 131.266C275.237 129.096 280.258 119.466 288.824 111.195C300.48 99.9479 318.679 91.2295 336.444 107.386C336.444 107.386 334.617 111.203 330.796 116.086Z" fill="#8E52FF"/>
<path d="M336.444 107.386C310.927 94.2446 289.887 122.745 289.887 122.745C288.495 118.814 288.207 114.884 288.804 111.182C300.48 99.9478 318.679 91.2295 336.444 107.386Z" fill="#14143F"/>
<path d="M232.97 110.188L224.276 116.145C220.681 118.264 200.776 103.416 199.041 83.6168C200.056 83.2608 201.112 82.7911 202.169 82.1835C206.397 79.8381 209.092 76.5979 208.16 74.9325C207.277 73.324 203.376 73.7944 199.314 75.9086C200.312 69.7965 203.254 63.3903 208.977 56.9996C208.989 56.9793 209.001 56.959 209.034 56.9509C213.931 58.8198 232.023 66.1679 234.912 87.7666C235.761 94.0229 235.343 101.422 232.97 110.188Z" fill="#8E52FF"/>
<path d="M284.254 183.854C282.034 187.546 271.263 185.43 257.286 179.232C256.434 178.857 255.561 178.471 254.681 178.052C249.2 175.5 243.277 172.351 237.253 168.727C227.092 162.614 218.295 156.162 211.981 150.403C210.801 149.334 209.735 148.306 208.742 147.294C203.086 141.543 200.355 136.807 201.868 134.292C203.613 131.392 210.59 132.053 220.251 135.462C221.761 135.983 223.307 136.582 224.913 137.217C232.107 140.136 240.363 144.274 248.881 149.399C253.283 152.046 257.424 154.759 261.216 157.454C262.072 158.052 262.895 158.658 263.698 159.251C278.076 169.834 286.707 179.778 284.254 183.854Z" fill="black"/>
<path d="M257.286 179.232C256.434 178.857 255.561 178.471 254.681 178.052C249.2 175.5 243.277 172.351 237.253 168.727C227.092 162.614 218.295 156.162 211.981 150.403C210.801 149.334 209.735 148.306 208.742 147.294C212.088 142.512 216.03 138.53 220.251 135.462C220.926 134.984 221.6 134.506 222.283 134.06C232.231 127.67 243.436 126.262 252.077 131.46C260.271 136.39 264.306 146.165 263.847 157.214C263.826 157.892 263.784 158.557 263.711 159.231C263.135 165.79 261.004 172.684 257.286 179.232Z" fill="#14143F"/>
<path d="M275.742 179.866C296.611 169.328 300.854 185.968 301.703 192.777C301.851 193.999 303.166 194.568 304.251 193.867C321.397 182.996 332.143 196.173 337.348 206.072C338.097 207.489 340.274 206.948 340.649 205.268C345.297 183.95 338.738 155.917 322.13 143.44C320.345 142.09 318.496 140.894 316.56 139.841C312.763 137.75 307.937 137.968 303.858 140.431C284.068 152.391 266.418 152.435 252.812 148.697C251.052 150.152 249.561 158.094 247.923 159.761C256.253 159.689 270.215 175.464 273.717 179.559C274.196 180.096 275.003 180.223 275.742 179.866ZM234.92 87.7991C230.177 93.3426 223.345 97.0773 223.345 97.0773C223.345 97.0773 227.004 77.9543 208.985 57.0321C208.997 57.0118 209.009 56.9915 209.042 56.9834C213.939 58.8523 232.031 66.2004 234.92 87.7991ZM250.008 189.079C250.041 188.933 250.082 188.82 250.114 188.673C252.332 180.119 249.213 171.116 242.294 165.628C228.121 154.339 227.237 142.537 229.484 134.028C228.843 133.808 228.21 133.62 227.544 133.441C209.965 128.777 190.789 142.377 182.466 164.385C182.075 165.448 182.655 166.598 183.746 166.895C208.654 173.565 203.476 189.427 201.051 194.514C200.62 195.415 200.992 196.495 201.856 196.987C215.657 204.489 211.454 216.158 206.009 224.153C205.204 225.353 205.97 226.974 207.415 227.097C225.314 228.75 243.733 212.733 250.008 189.079Z" fill="#14143F"/>
<path d="M260.594 78.5496C260.594 78.5496 264.281 70.6302 262.21 67.2302C262.012 66.9174 262.236 66.4995 262.617 66.5081C264.907 66.5595 270.751 67.0372 276.248 70.3438C276.511 70.5024 276.568 70.8678 276.328 71.0826C274.422 72.9193 267.054 80.2539 267.748 84.2896L260.594 78.5496Z" fill="#00DF00"/>
<path d="M292.486 138.672L297.146 138.686C297.974 138.687 298.471 137.77 297.993 137.095C296.023 134.17 294.478 129.346 294.478 129.346C300.604 111.265 287.623 90.5559 265.529 83.0652C243.422 75.5947 220.551 84.1818 214.424 102.263C214.257 102.77 214.09 103.277 213.956 103.776C210.65 105.185 205.942 107.684 207.336 109.821C208.9 112.226 209.619 112.409 209.891 112.324C209.143 112.786 205.369 115.295 208.626 117.779C212.235 120.503 215.608 124.217 215.608 124.217C220.155 134.796 230.126 144.027 243.366 148.511C258.075 153.493 273.129 151.335 283.363 144.012C283.363 144.012 293.344 144.409 294.299 143.878C295.253 143.348 292.486 138.672 292.486 138.672Z" fill="#14143F"/>
<path d="M296.766 113.238C303.207 100.649 285.736 79.6424 264.91 81.2013C247.797 66.4867 219.736 76.3992 217.798 91.6963L296.766 113.238Z" fill="#FF653C"/>
<path d="M237.242 122.739C242.951 124.499 249.021 121.246 250.799 115.474C252.578 109.703 249.391 103.598 243.682 101.839C237.973 100.079 231.903 103.332 230.125 109.104C228.346 114.875 231.532 120.98 237.242 122.739Z" fill="#F2F2F2"/>
<path d="M240.863 120.115C244.374 121.197 248.103 119.208 249.192 115.673C250.282 112.137 248.319 108.394 244.809 107.313C241.298 106.231 237.569 108.22 236.48 111.755C235.39 115.291 237.353 119.034 240.863 120.115Z" fill="#14143F"/>
<path d="M269.349 131.725C275.058 133.484 281.128 130.231 282.906 124.46C284.685 118.688 281.498 112.583 275.789 110.824C270.08 109.065 264.01 112.318 262.232 118.089C260.453 123.861 263.639 129.966 269.349 131.725Z" fill="#F2F2F2"/>
<path d="M268.099 126.915C271.609 127.997 275.338 126.008 276.427 122.473C277.517 118.937 275.554 115.194 272.044 114.113C268.533 113.031 264.804 115.02 263.715 118.555C262.625 122.091 264.588 125.834 268.099 126.915Z" fill="#14143F"/>
<path d="M244.521 125.423C244.521 125.423 249.603 118.813 253.125 126.733C253.125 126.733 259.342 121.909 261.688 128.569" stroke="black" stroke-width="3" stroke-miterlimit="10" stroke-linecap="round" stroke-linejoin="round"/>
<path d="M252.388 132.78L252.742 138.849C252.809 140.022 254.372 140.41 254.982 139.396L258.191 133.923L252.388 132.78ZM245.449 130.539L245.117 136.831C245.079 137.72 246.191 138.167 246.744 137.478L250.927 132.454L245.449 130.539Z" fill="#F2F2F2"/>
<path d="M229.775 121.193C229.775 121.193 248.48 138.495 275.983 133.688" stroke="black" stroke-width="3" stroke-miterlimit="10" stroke-linecap="round" stroke-linejoin="round"/>
<path d="M274.754 132.562L277.533 134.234" stroke="black" stroke-width="3" stroke-miterlimit="10" stroke-linecap="round" stroke-linejoin="round"/>
<path d="M231.213 120.456L227.923 121.791" stroke="black" stroke-width="3" stroke-miterlimit="10" stroke-linecap="round" stroke-linejoin="round"/>
<path d="M227.516 112.459C227.169 113.907 227.366 115.462 228.038 116.778M226.29 112.66C225.997 113.147 225.899 113.723 225.983 114.271M283.262 126.548C282.732 128.025 281.801 129.344 280.558 130.308M284.552 127.159C284.303 127.755 284.067 128.331 283.819 128.928M269.152 84.3887C275.147 88.3819 279.528 94.691 281.168 101.699M248.636 78.1784C244.527 79.1316 240.724 81.3192 237.81 84.3724" stroke="black" stroke-width="3" stroke-miterlimit="10" stroke-linecap="round" stroke-linejoin="round"/>
<path d="M309.38 149.664C309.38 149.664 333.878 159.816 334.391 190.095M304.984 153.207C304.984 153.207 311.853 166.951 305.019 185.518" stroke="black" stroke-width="2.835" stroke-miterlimit="10" stroke-linecap="round" stroke-linejoin="round"/>
<path d="M238.623 171.043C238.623 171.043 215.34 173.471 206.755 193.94M192.723 165.197C192.723 165.197 215.156 157.478 231.728 165.514M242.286 165.595C234.05 159.038 230.307 152.312 229.035 146.16M242.475 244.074C248.129 241.011 257.757 234.787 265.637 223.479C270.549 216.463 273.223 209.675 274.752 204.655M276.014 211.602C274.418 215.724 272.173 219.594 269.368 223.017M170.713 203.803C171.587 199.55 173.458 192.996 177.838 185.991C182.047 179.27 186.928 174.831 190.275 172.204" stroke="black" stroke-width="3" stroke-miterlimit="10" stroke-linecap="round" stroke-linejoin="round"/>
<path d="M257.215 129.55C258.362 129.809 259.444 129.346 259.631 128.517C259.818 127.689 259.039 126.807 257.892 126.548C256.744 126.289 255.662 126.751 255.475 127.58C255.288 128.409 256.067 129.291 257.215 129.55Z" fill="black"/>
<path d="M248.449 127.591C249.596 127.85 250.678 127.387 250.865 126.559C251.052 125.73 250.273 124.848 249.126 124.589C247.978 124.33 246.896 124.792 246.709 125.621C246.522 126.45 247.301 127.332 248.449 127.591Z" fill="black"/>
</g>
<path d="M1400.68 39.3967C1400.68 39.3967 1407.43 41.0833 1412.33 44.7825C1414.42 46.3542 1415.57 48.4625 1415.57 50.6283L1415.54 57.5667C1415.54 57.5667 1421.04 58.3717 1426.08 66.7667C1428.95 71.5583 1427.99 80.375 1427.99 80.375L1422.28 141.517L1408.25 145.542L1400.68 39.3967Z" fill="#E5C5AA"/>
<path d="M1363.19 65.6358C1363.19 65.6358 1364.15 58.9083 1367.02 57.95C1369.9 56.9917 1372.2 56.6083 1372.2 56.6083L1373.5 46.5267C1373.89 43.5367 1376.03 41.0833 1378.93 40.2783C1383.26 39.09 1389.99 37.8058 1396.92 38.5917C1408.62 39.9333 1405.74 48.175 1405.74 48.175L1404.78 58.1417C1404.78 58.1417 1412.45 61.4 1412.83 69.6417C1413.22 77.8833 1408.23 145.542 1408.23 145.542L1353.99 142.858L1363.19 65.6358Z" fill="#F9DFC7"/>
<path d="M1335.97 142.111L1319.03 149.912C1318.99 149.931 1318.95 149.912 1318.94 149.873L1300.34 96.4942C1300.15 95.9575 1300.19 95.3633 1300.44 94.865L1301.01 93.6958V93.6767C1301.24 92.6417 1300.78 91.5875 1299.88 91.0508L1299.5 90.8208C1299.48 90.8208 1299.48 90.8017 1299.48 90.8017L1298.94 89.7092C1298.93 89.69 1298.94 89.6517 1298.96 89.6325L1302.05 86.7383C1302.09 86.7 1302.07 86.6233 1301.99 86.6233L1298.31 87.0642C1297.6 87.1408 1296.95 86.7383 1296.72 86.0675L1293.62 77.1167C1293.52 76.8483 1293.54 76.58 1293.64 76.3117L1294.63 73.8392V73.82L1296.72 70.9642C1296.72 70.945 1296.74 70.945 1296.76 70.945L1297.33 70.7725C1298.39 70.4467 1298.98 69.335 1298.66 68.2808C1298.66 68.2617 1298.66 68.2617 1298.64 68.2617L1297.32 66.9392C1297.07 66.69 1296.91 66.3642 1296.87 66.0192L1296.7 64.505C1296.66 64.2175 1296.68 63.9108 1296.76 63.6233L1299.42 52.9858C1299.42 52.9667 1299.44 52.9475 1299.44 52.9475L1307.4 47.4467C1307.44 47.4275 1307.49 47.4467 1307.49 47.485L1336.01 142.034C1336.01 142.073 1335.99 142.092 1335.97 142.111ZM1292.89 105.1L1292.33 110.754C1288.82 112.057 1287.41 115.872 1289.17 119.302C1289.69 120.299 1290.4 121.142 1291.24 121.832L1289.05 165.092L1282.44 162.792C1282.44 162.792 1279.47 155.182 1277.15 148.857C1277.15 148.838 1277.15 148.819 1277.15 148.8C1277.02 147.861 1277.21 147.209 1277.38 146.845C1277.48 146.634 1277.4 146.404 1277.17 146.27C1276.85 146.078 1276.39 145.829 1275.96 145.561C1275.1 143.165 1274.24 140.731 1273.47 138.469C1273.57 136.859 1274.41 136.706 1274.41 136.706L1273.84 136.38C1273.38 136.131 1273.18 135.632 1273.38 135.192L1273.43 135.038C1273.59 134.693 1273.38 134.291 1272.95 134.157L1271.94 133.85C1271.42 132.24 1271.02 130.841 1270.75 129.787C1268.93 122.503 1276 121.353 1276 121.353C1276 121.353 1274.85 116.945 1277.15 112.153C1280.2 105.809 1292.89 105.1 1292.89 105.1Z" fill="#E5C5AA"/>
<path d="M1313.01 119.667C1313.01 119.667 1312.28 117.348 1310.71 115.872C1310.48 115.661 1310.18 115.642 1309.89 115.738C1309.83 115.757 1309.79 115.738 1309.75 115.661C1309.64 115.45 1309.35 115.297 1309.12 115.201C1309.03 115.163 1308.91 115.143 1308.8 115.143C1308.7 115.143 1308.6 115.163 1308.51 115.201C1308.36 115.258 1308.2 115.22 1308.09 115.086C1307.86 114.818 1307.38 114.588 1306.98 114.396C1306.11 114.358 1305.54 114.511 1305.54 114.511C1304.41 112.23 1299.23 104.544 1292.89 105.119C1291.78 105.215 1290.61 105.579 1289.44 106.269C1281.58 110.869 1285.03 122.944 1285.03 122.944C1285.03 122.944 1282.58 121.085 1279.47 122.944C1275.64 125.244 1277.36 130.611 1277.36 130.611L1278.46 133.869L1279.39 134.214C1279.76 134.348 1279.93 134.732 1279.8 135.096L1279.74 135.249C1279.57 135.69 1279.74 136.188 1280.12 136.438L1280.6 136.763C1280.6 136.763 1280.01 136.878 1279.85 138.124L1282.06 144.718C1282.31 144.89 1282.54 145.063 1282.73 145.178C1282.92 145.312 1282.98 145.542 1282.9 145.753C1282.83 145.963 1282.73 146.251 1282.69 146.615L1288.84 164.958L1323.34 153.458L1313.01 119.667ZM1297.85 123.213C1295.72 124.133 1293.27 123.5 1291.51 121.813C1290.8 121.143 1290.19 120.28 1289.76 119.303C1288.29 115.872 1289.48 112.058 1292.43 110.754C1292.45 110.754 1292.47 110.735 1292.47 110.735C1295.46 109.451 1299.08 111.195 1300.55 114.645C1302.05 118.095 1300.84 121.928 1297.85 123.213Z" fill="#F9DFC7"/>
<path d="M1266.25 164.133C1266.25 164.133 1267.4 159.342 1273.53 160.108C1273.53 160.108 1278.51 155.508 1282.35 159.533C1282.35 159.533 1286.95 159.342 1287.52 162.6C1287.52 162.6 1284.28 163.903 1280.81 163.367C1280.81 163.367 1273.91 165.283 1270.85 164.517C1270.85 164.517 1266.05 164.9 1266.25 164.133Z" fill="#3C1F84"/>
<path d="M1299.12 122.446C1299.42 121.028 1299.31 119.417 1298.64 117.903C1297.14 114.453 1293.52 112.69 1290.55 113.993C1290.09 114.185 1289.67 114.453 1289.28 114.76C1289.69 112.958 1290.8 111.444 1292.47 110.735C1295.46 109.451 1299.08 111.195 1300.55 114.645C1301.82 117.558 1301.15 120.74 1299.12 122.446Z" fill="#E5C5AA"/>
<path d="M1368.98 133.658L1329.5 148.033L1310.56 91.2233L1311.29 89.7667C1311.52 88.7317 1311.06 87.6775 1310.16 87.1408L1309.75 86.8917L1309.18 85.7417L1311.88 83.2117C1312.05 83.0392 1311.92 82.7517 1311.67 82.7708C1309.47 83.0392 1307.38 81.7167 1306.69 79.6083L1304.2 72.1333L1304.46 70.1017L1305.92 68.1083L1306.5 67.9358C1307.55 67.61 1308.14 66.4983 1307.84 65.425L1306.65 64.2367C1306.3 63.8917 1306.07 63.4317 1306.04 62.9525L1305.75 60.4417L1307.47 47.4275L1322.98 40.9683C1323.34 40.815 1323.77 40.8725 1324.05 41.1217L1324.59 41.5625L1324.95 42.77C1325.05 43.0575 1325.22 43.3067 1325.49 43.4792L1325.82 43.69C1326.1 43.8817 1326.3 44.1692 1326.35 44.495L1326.64 46.0283C1326.79 46.8142 1327.77 47.0633 1328.29 46.45L1328.4 46.3158C1328.61 46.0475 1328.94 45.875 1329.29 45.8558C1329.32 45.8558 1329.36 45.8558 1329.4 45.8558C1329.69 45.8558 1329.98 45.9517 1330.21 46.1433L1344.47 57.7967L1347.72 67.8975V70.6767C1347.72 70.9067 1347.76 71.1175 1347.84 71.3283L1348.3 72.5358C1348.22 72.6317 1348.18 72.7467 1348.18 72.8617C1348.18 73.13 1348.38 73.3792 1348.66 73.4175L1348.93 73.4558C1349.3 73.4942 1349.62 73.7625 1349.74 74.1075L1368.98 133.658Z" fill="#F9DFC7"/>
<path d="M1333.52 136.917L1309.95 71.5583L1312.05 51.625L1323.55 47.4083L1340.04 61.4L1362.08 125.992L1333.52 136.917Z" fill="#E5C5AA"/>
<path d="M1333.14 100.097L1329.75 95.6508C1329.75 95.6508 1331.74 93.6767 1330.17 92.2583C1328.04 90.3608 1319.61 97.5292 1321.27 99.465C1322.54 100.941 1324.46 99.465 1324.46 99.465L1328.9 104.544L1333.14 100.097ZM1339.65 97.625L1340.11 91.7025C1340.11 91.7025 1337.2 91.0892 1337.78 88.9233C1338.56 86.01 1350.22 87.5433 1349.85 90.2267C1349.56 92.2775 1347.01 92.0475 1347.01 92.0475L1345.98 99.1392L1339.65 97.625ZM1394.09 64.8308C1394.09 64.8308 1399.8 60.9592 1400.28 57.0875C1400.34 56.6275 1400.91 56.4167 1401.28 56.7425C1403.36 58.6017 1407.26 63.6617 1399.07 70.6L1394.09 64.8308Z" fill="#FFF8EB"/>
<path d="M1301.63 128.138C1301.63 128.138 1296.36 126.03 1293.37 130.074C1293.16 130.342 1293.37 130.745 1293.71 130.745C1295.03 130.764 1297.64 131.147 1299.04 133.658C1299.02 133.658 1302.87 131.262 1301.63 128.138Z" fill="#FF653C"/>
<path d="M1380.48 63.7C1380.48 63.7 1376.26 63.3167 1376.22 55.3242C1376.22 54.845 1375.67 54.5192 1375.21 54.8067C1372.49 56.5125 1368 62.7417 1372.22 70.6L1380.48 63.7Z" fill="#FFF8EB"/>
<path d="M1365.34 146.5C1365.34 146.5 1352.21 94.7883 1370.7 70.7917C1389.2 46.795 1405.89 67.9933 1403.67 83.0583C1402.14 93.4083 1404.69 105.733 1411.15 126.758C1416.51 144.2 1405.97 153.592 1405.97 153.592C1394.24 155.413 1380.48 155.508 1372.14 153.592C1372.16 153.592 1366.68 154.358 1365.34 146.5Z" fill="#8E52FF"/>
<path d="M1360.81 156.275C1363.06 155.7 1370.21 149.298 1369.19 137.683C1367.85 122.542 1361.91 120.625 1358.65 111.808C1356.33 105.56 1349.07 90.5333 1334.69 97.05C1321.81 102.896 1329.71 116.389 1330.47 119.283C1332.33 126.241 1318.23 135.057 1320.05 148.819C1320.62 153.247 1324.17 156.697 1328.61 157.195C1340.8 158.556 1352.09 158.498 1360.81 156.275Z" fill="#F9D225"/>
<path d="M1315.31 125.608C1315.31 125.608 1320.05 122.388 1323.65 124.401C1323.94 124.554 1323.92 124.976 1323.63 125.11C1322.58 125.608 1320.76 126.912 1321.45 129.825L1315.31 125.608Z" fill="#FF653C"/>
<path d="M1294.34 165.916C1293.75 165.877 1293.23 165.494 1293.04 164.938C1292.64 163.807 1292.68 161.527 1295.95 157.636C1301.13 151.502 1303.05 152.461 1299.98 143.261C1296.91 134.061 1298.83 127.352 1308.03 124.669C1319.55 121.315 1334.94 136.974 1330.63 162.6C1330.49 163.386 1329.99 164.076 1329.28 164.44C1326.72 165.705 1318.69 167.756 1294.34 165.916Z" fill="#00DF00"/>
<path d="M1324.57 138.409C1325.26 137.217 1323.78 135.071 1321.26 133.615C1318.73 132.16 1316.13 131.946 1315.45 133.138C1314.76 134.33 1316.24 136.476 1318.76 137.931C1321.29 139.387 1323.89 139.6 1324.57 138.409Z" fill="#F2F2F2"/>
<path d="M1309.61 139.148C1311.76 137.186 1312.76 134.772 1311.83 133.755C1310.9 132.738 1308.41 133.504 1306.25 135.466C1304.1 137.427 1303.11 139.841 1304.04 140.858C1304.97 141.875 1307.46 141.109 1309.61 139.148Z" fill="#F2F2F2"/>
<path d="M1302.57 142.762V143.874C1302.57 144.047 1302.78 144.162 1302.91 144.047L1304.33 142.973C1304.5 142.839 1304.73 143.012 1304.68 143.203L1304.2 144.871C1304.14 145.062 1304.35 145.216 1304.52 145.12L1306.44 143.932C1306.59 143.836 1306.78 143.951 1306.78 144.123V149.701C1306.78 149.892 1306.99 149.988 1307.15 149.873L1312.23 145.58C1312.32 145.503 1312.48 145.522 1312.55 145.637L1314.45 148.589C1314.55 148.723 1314.76 148.723 1314.83 148.57L1317.57 143.606C1317.65 143.472 1317.82 143.452 1317.92 143.567L1320.3 146.078C1320.45 146.232 1320.7 146.097 1320.68 145.887L1320.08 142.207C1320.07 142.053 1320.22 141.919 1320.37 141.957L1321.58 142.322C1321.7 142.36 1321.81 142.302 1321.85 142.207L1322.29 141.172C1322.33 141.095 1322.4 141.037 1322.5 141.037H1325.2M1325.14 135.958C1325.6 136.629 1325.85 137.453 1325.85 138.277M1326.39 136.725C1326.54 137.012 1326.62 137.338 1326.6 137.664M1302.99 138.546C1302.76 139.178 1302.84 139.907 1303.16 140.501M1301.93 139.14C1301.9 139.466 1301.93 139.792 1302.01 140.117" stroke="#14143F" stroke-width="3" stroke-miterlimit="10" stroke-linecap="round" stroke-linejoin="round"/>
<path d="M1344.35 110.371L1349.72 106.538" stroke="#14143F" stroke-width="3" stroke-miterlimit="10" stroke-linecap="round" stroke-linejoin="round"/>
<path d="M1338.6 112.096L1332.66 113.821" stroke="#14143F" stroke-width="3" stroke-miterlimit="10" stroke-linecap="round" stroke-linejoin="round"/>
<path d="M1335.63 121.353C1335.63 121.353 1336.49 117.654 1337.26 117.654C1338.03 117.654 1338.41 121.104 1338.79 121.104C1339.18 121.104 1339.37 117.654 1340.13 117.462C1340.9 117.271 1342.43 121.104 1343.2 120.912C1343.97 120.721 1342.82 116.504 1343.97 116.121C1345.12 115.737 1346.27 118.804 1346.84 118.421C1347.42 118.037 1346.08 114.913 1346.84 114.549C1347.61 114.204 1348.95 115.929 1349.91 115.354C1350.87 114.779 1348.28 112.479 1348.99 112.096C1349.72 111.712 1350.31 112.479 1350.87 112.096C1351.42 111.712 1350.85 111.137 1351.23 110.754C1351.61 110.371 1353.15 111.137 1353.15 111.137M1351.92 105.234C1352.02 106.001 1351.86 106.787 1351.48 107.438M1352.92 105.982C1353.01 106.288 1352.99 106.652 1352.86 106.94M1331.11 114.702C1331.34 115.086 1331.7 115.373 1332.12 115.488M1331.01 115.987C1331.13 116.293 1331.41 116.523 1331.74 116.581" stroke="#14143F" stroke-width="3" stroke-miterlimit="10" stroke-linecap="round" stroke-linejoin="round"/>
<path d="M1391.79 75.6792L1396.77 82.1958" stroke="#14143F" stroke-width="5" stroke-miterlimit="10" stroke-linecap="round" stroke-linejoin="round"/>
<path d="M1397.15 75.6792L1391.4 81.8125" stroke="#14143F" stroke-width="5" stroke-miterlimit="10" stroke-linecap="round" stroke-linejoin="round"/>
<path d="M1375.48 73.2258L1379.37 80.4325" stroke="#14143F" stroke-width="5" stroke-miterlimit="10" stroke-linecap="round" stroke-linejoin="round"/>
<path d="M1380.77 74.0692L1374.14 79.2058" stroke="#14143F" stroke-width="5" stroke-miterlimit="10" stroke-linecap="round" stroke-linejoin="round"/>
<path d="M1395.37 90.4567C1394.95 90.9358 1394.51 91.3767 1394.11 91.6833C1393.7 91.99 1393.26 92.2775 1392.78 92.5267C1392.69 92.5842 1392.57 92.6417 1392.48 92.68C1391.14 93.3508 1389.51 93.7917 1387.57 93.9833C1387.46 93.9833 1387.34 94.0025 1387.23 94.0217C1386.11 94.0983 1384.89 94.0983 1383.56 93.9833C1383.35 93.9642 1383.14 93.945 1382.95 93.9258C1382.78 93.9067 1382.61 93.8875 1382.43 93.8683C1380.75 93.6192 1379.39 93.1592 1378.18 92.5267C1377.97 92.4117 1377.76 92.2775 1377.55 92.1625C1376.17 91.3 1375 90.1692 1373.79 88.8275C1373.79 88.8275 1373.31 88.1758 1372.79 87.2558C1372.6 86.93 1372.41 86.5467 1372.24 86.1633C1371.68 84.8983 1371.34 83.4992 1372.06 82.675C1372.1 82.6367 1372.14 82.5983 1372.16 82.56C1372.75 81.9658 1373.23 82.1192 1373.91 82.6175C1374.17 82.8283 1374.46 83.0775 1374.81 83.365C1375.63 84.0742 1376.7 84.975 1378.31 85.78C1378.52 85.8758 1378.72 85.9717 1378.95 86.0675C1379.6 86.355 1380.33 86.6233 1381.15 86.8342C1381.42 86.9108 1381.69 86.9683 1381.97 87.045C1382.76 87.2175 1383.6 87.3517 1384.54 87.4475C1385.04 87.4858 1385.5 87.5433 1385.96 87.5625C1386.04 87.5625 1386.09 87.5625 1386.15 87.5817C1387.86 87.6775 1389.2 87.62 1390.29 87.4475C1390.6 87.4092 1390.87 87.3517 1391.14 87.2942C1392.07 87.1025 1392.77 86.815 1393.36 86.5275C1393.59 86.4125 1393.8 86.2783 1394.01 86.1633C1395.08 85.4925 1395.7 84.8408 1396.83 84.7642C1398.98 84.63 1397.31 88.2142 1395.37 90.4567Z" fill="white"/>
<path d="M1372.16 82.56C1372.16 83.5375 1372.18 84.975 1372.24 86.1442M1374.79 83.3842C1374.92 85.5117 1374.35 89.6708 1374.63 89.6708C1374.96 89.6708 1377.12 86.7 1378.27 85.7992M1381.96 87.0642C1382.13 88.8467 1381.94 92.8908 1382.43 93.8683M1392.76 92.5267C1393.32 91.7025 1393.11 88.0992 1393.32 86.5467M1391.1 87.3133C1391.46 88.7317 1391.52 92.4883 1392.44 92.68M1393.95 86.1825C1394.39 87.045 1394.82 89.2683 1395.37 90.4567M1387.55 93.9833C1388.34 93.3317 1389.47 89.1342 1390.25 87.4667M1387.21 94.0025C1386.5 93.37 1387.32 87.9267 1386.11 87.5817C1386.06 87.5625 1385.98 87.5625 1385.92 87.5625C1384.5 87.7542 1383.79 92.9483 1382.93 93.9067M1378.18 92.5075C1379.02 91.3575 1380.33 88.2333 1381.13 86.8533M1377.55 92.1433C1377.76 90.6292 1378.81 87.39 1378.93 86.0867M1373.89 82.6367C1373.39 83.595 1373.04 85.9142 1372.77 87.2367" stroke="#14143F" stroke-width="3" stroke-miterlimit="10" stroke-linecap="round" stroke-linejoin="round"/>
<path d="M1399.65 84.4C1400.81 84.4 1401.75 83.9281 1401.75 83.3459C1401.75 82.7637 1400.81 82.2917 1399.65 82.2917C1398.48 82.2917 1397.54 82.7637 1397.54 83.3459C1397.54 83.9281 1398.48 84.4 1399.65 84.4Z" fill="#E55C5C"/>
<path d="M1372.16 80.8594C1372.32 80.2998 1371.54 79.5857 1370.42 79.2644C1369.31 78.9431 1368.27 79.1363 1368.11 79.6959C1367.95 80.2556 1368.72 80.9696 1369.84 81.2909C1370.96 81.6122 1372 81.419 1372.16 80.8594Z" fill="#E55C5C"/>
<path d="M1275.45 164.325C1275.45 164.325 1278.9 161.067 1281.77 162.025C1281.77 162.025 1284.45 157.233 1290.01 161.642C1290.01 161.642 1294.42 158.767 1298.06 164.133C1298.06 164.133 1300.55 163.558 1302.09 165.858C1303.62 168.158 1296.34 166.625 1296.34 166.625C1296.34 166.625 1281.2 168.35 1279.28 165.283C1279.28 165.283 1275.25 165.667 1275.45 164.325ZM1325.26 164.306C1325.97 163.098 1327.31 161.603 1329.48 161.833C1329.48 161.833 1333.06 156.045 1337.95 160.53C1337.95 160.53 1346.02 160.051 1345.71 163.098C1345.39 166.146 1338.08 164.938 1337.49 164.881C1336.95 164.823 1329.84 168.637 1325.55 166.357C1324.97 166.069 1324.84 165.015 1325.26 164.306Z" fill="#4B2CCE"/>
<path d="M1310.85 167.411C1310.85 167.411 1312.76 164.862 1315.12 165.053C1315.12 165.053 1319.32 159.533 1324.59 165.417C1324.59 165.417 1332.08 169.232 1317.77 169.807C1317.77 169.807 1306.57 169.768 1310.85 167.411Z" fill="#4B2CCE"/>
<path d="M1344.58 160.012C1345.15 158.786 1347.15 156.85 1349.54 159.342C1349.91 159.706 1349.81 160.319 1349.29 160.453C1348.36 160.683 1346.86 160.971 1345.14 160.913C1344.68 160.894 1344.39 160.415 1344.58 160.012Z" fill="#3C1F84"/>
<path d="M1361.5 164.267C1362.14 163.156 1363.92 161.584 1365.18 164.287C1365.38 164.689 1365.2 165.264 1364.82 165.322C1364.09 165.417 1362.98 165.494 1361.75 165.207C1361.41 165.149 1361.29 164.651 1361.5 164.267Z" fill="#4B2CCE"/>
<path d="M1443.73 84.4C1443.73 84.4 1461.65 87.5625 1464.62 99.7333C1468.26 114.683 1451.97 156.275 1451.97 156.275L1437.98 158.767L1443.73 84.4Z" fill="#E5C5AA"/>
<path d="M1452.12 105.79C1451.45 106.576 1451.68 107.802 1452.62 108.262L1453.08 108.492C1453.83 108.876 1454.33 109.623 1454.41 110.447L1454.5 111.444C1453.41 115.162 1451.28 121.468 1448.9 128.272C1448.64 129.039 1448.02 129.633 1447.26 129.863C1446.14 130.208 1444.99 130.783 1444.73 131.703C1444.42 132.7 1444.76 133.141 1445.15 133.313C1445.49 133.467 1445.65 133.907 1445.47 134.252L1444.8 135.613C1444.65 135.92 1444.69 136.284 1444.9 136.572C1445.2 136.974 1445.38 137.492 1445.38 137.99C1445.38 138.258 1445.34 138.507 1445.24 138.776C1441.39 149.452 1437.98 158.767 1437.98 158.767L1403.67 153.592C1403.67 153.592 1406.03 125.378 1415.21 104.966C1415.48 104.352 1416.19 104.046 1416.82 104.295C1417.13 104.41 1417.45 104.18 1417.45 103.854V102.225L1418.41 100.692L1418.22 99.465C1418.18 99.2158 1418.24 98.9667 1418.35 98.7558C1422.32 91.9325 1427.32 86.7 1433.55 84.975C1448.31 80.8541 1454.44 91.0316 1455.4 100.979C1455.46 101.516 1455.29 102.052 1454.92 102.474L1452.12 105.79Z" fill="#F9DFC7"/>
<path d="M1426.29 113.725C1426.29 113.725 1432.42 114.683 1432.61 109.7C1432.8 104.717 1428.78 105.1 1428.78 105.1C1428.63 103.739 1439.99 100.423 1441.81 110.083C1443.15 117.175 1436.45 123.692 1431.46 125.033C1426.48 126.375 1426.29 113.725 1426.29 113.725Z" fill="#FFF8EB"/>
<path d="M1424.75 153.4C1424.75 153.4 1428.97 148.992 1432.8 154.933C1432.8 154.933 1435.2 153.4 1437.02 157.042C1437.02 157.042 1437.98 152.058 1442.58 153.592C1442.58 153.592 1451.01 147.267 1455.8 154.55C1455.8 154.55 1461.36 154.933 1459.45 158.192C1457.53 161.45 1446.41 158.767 1444.5 159.15C1442.58 159.533 1437.6 160.492 1434.15 159.725C1430.7 158.958 1424.18 158.767 1424.18 158.767L1424.75 153.4Z" fill="#3C1F84"/>
<path d="M1434.15 159.725C1434.15 160.281 1431.52 160.779 1427.23 161.143C1426.56 161.201 1425.85 161.258 1425.12 161.316C1425.12 161.316 1424.93 161.335 1424.58 161.354C1420.73 161.603 1415.92 161.776 1410.67 161.833C1410.3 161.833 1409.92 161.833 1409.54 161.833C1408.94 161.833 1408.33 161.833 1407.7 161.833C1402.43 161.833 1397.52 161.718 1393.4 161.507C1386.1 161.124 1381.25 160.473 1381.25 159.725C1381.25 159.035 1385.39 158.422 1391.81 158.038C1396.23 157.77 1401.74 157.617 1407.7 157.617C1415.02 157.617 1421.67 157.847 1426.46 158.23C1431.21 158.613 1434.15 159.15 1434.15 159.725Z" fill="black"/>
<path d="M1410 112.958C1410 112.958 1404.63 112.383 1406.16 108.167C1407.04 105.713 1409.34 105.081 1410.67 104.928C1411.07 104.889 1411.2 104.391 1410.92 104.123C1409.15 102.532 1401.7 98.9475 1396.77 104.506C1390.83 111.214 1399.26 120.798 1399.26 120.798L1410 112.958Z" fill="#FFF8EB"/>
<path d="M1424.95 144.258C1423.99 147.209 1425.44 154.205 1426.46 158.23C1426.84 159.744 1427.15 160.837 1427.23 161.143C1426.56 161.201 1425.85 161.258 1425.12 161.316C1425.12 161.316 1424.93 161.335 1424.58 161.354C1422.86 161.469 1417.07 161.795 1409.54 161.833C1408.94 161.833 1408.33 161.833 1407.7 161.833C1402.42 161.833 1397.52 161.718 1393.4 161.508C1393 160.76 1392.42 159.572 1391.81 158.038C1389.64 152.614 1387.07 142.801 1391.02 132.566C1396.96 117.156 1406.74 107.803 1418.43 108.186C1430.12 108.569 1433.19 118.728 1431.08 128.675C1428.97 138.603 1426.48 139.581 1424.95 144.258Z" fill="#FF653C"/>
<path d="M1410.63 118.996C1409.69 120.472 1408.04 121.142 1406.6 120.778C1406.3 120.702 1406.01 120.567 1405.72 120.395C1404.17 119.398 1403.82 117.137 1404.97 115.354C1406.12 113.572 1408.31 112.939 1409.86 113.936C1410.11 114.089 1410.34 114.3 1410.51 114.511C1411.49 115.661 1411.59 117.501 1410.63 118.996Z" fill="#BF462E"/>
<path d="M1410.63 118.996C1409.69 120.472 1408.04 121.143 1406.6 120.778C1405.63 119.628 1405.55 117.808 1406.51 116.313C1407.45 114.837 1409.09 114.166 1410.53 114.53C1411.49 115.661 1411.59 117.501 1410.63 118.996Z" fill="#14143F"/>
<path d="M1426.01 117.959C1427 115.278 1425.91 112.406 1423.58 111.545C1421.24 110.684 1418.55 112.159 1417.56 114.841C1416.57 117.522 1417.66 120.394 1420 121.255C1422.33 122.116 1425.02 120.64 1426.01 117.959Z" fill="#F2F2F2"/>
<path d="M1414.21 127.908C1411.18 128.368 1410.78 123.787 1410.76 121.852C1410.76 121.775 1410.76 121.717 1410.76 121.66C1410.76 121.277 1411.03 120.951 1411.4 120.893L1415.9 120.031C1416.34 119.935 1416.78 120.261 1416.84 120.721C1416.84 120.797 1416.86 120.874 1416.86 120.951C1417.05 123.002 1417.15 127.467 1414.21 127.908Z" fill="#14143F"/>
<path d="M1416.86 120.932L1415.77 121.2L1414.81 123.308L1414.04 121.583L1410.78 121.852C1410.78 121.775 1410.78 121.717 1410.78 121.66C1410.78 121.277 1411.05 120.951 1411.41 120.893L1415.92 120.031C1416.36 119.935 1416.8 120.261 1416.86 120.721C1416.84 120.759 1416.84 120.836 1416.86 120.932Z" fill="#F2F2F2"/>
<path d="M1461.36 158.537C1462 157.425 1463.76 155.834 1465.04 158.537C1465.23 158.939 1465.06 159.514 1464.68 159.572C1463.97 159.687 1462.84 159.744 1461.61 159.495C1461.29 159.399 1461.15 158.92 1461.36 158.537Z" fill="#3C1F84"/>
<path d="M1426.23 161.239C1426.23 161.239 1426.48 159.533 1428.59 159.342C1428.59 159.342 1428.2 155.508 1432.23 156.275C1436.25 157.042 1437.21 158.958 1437.21 158.958C1437.21 158.958 1438.4 159.054 1438.55 160.3C1438.71 161.546 1433.19 161.258 1433.19 161.258C1433.19 161.258 1428.86 161.987 1426.23 161.239ZM1352.09 162.121C1352.55 161.277 1354.05 159.993 1355.74 161.795C1355.98 162.063 1355.91 162.485 1355.52 162.562C1354.83 162.696 1353.74 162.849 1352.48 162.772C1352.15 162.734 1351.94 162.408 1352.09 162.121Z" fill="#4B2CCE"/>
<path d="M1353.13 157.099C1353.47 156.275 1354.3 155.067 1355.97 155.317C1355.97 155.317 1357.12 152.058 1360.18 153.208C1360.18 153.208 1361.72 149.567 1367.47 149.95C1373.22 150.333 1373.41 153.592 1373.41 153.592C1373.41 153.592 1375.55 153.093 1376.57 154.952C1377.05 155.853 1376.49 156.965 1375.5 157.176C1374.46 157.387 1372.89 157.521 1370.72 157.233C1370.72 157.233 1364.59 158.383 1361.14 157.617C1361.14 157.617 1356.81 158.786 1353.59 158.019C1353.17 157.904 1352.96 157.482 1353.13 157.099Z" fill="#3C1F84"/>
<path d="M1335.44 169.883C1335.44 169.883 1335.82 167.583 1337.93 167.967C1337.93 167.967 1341.19 164.133 1345.21 167.583C1349.24 171.033 1338.7 169.883 1338.7 169.883C1338.7 169.883 1337.16 170.458 1335.44 169.883ZM1390.27 161.048C1389.66 160.53 1387.55 159.687 1386.79 159.687C1386.79 159.687 1387.13 154.646 1380.34 157.157C1380.34 157.157 1377.39 156.179 1375.82 159.284C1375.82 159.284 1373.04 160.645 1375.65 161.412C1375.65 161.412 1378.43 162.178 1380.34 161.795C1380.34 161.795 1384.5 162.485 1386.61 162.37C1390.45 162.217 1390.77 161.45 1390.27 161.048Z" fill="#4B2CCE"/>
<path d="M958.212 791.215V823.929" stroke="#14143F" stroke-width="64.826" stroke-miterlimit="10" stroke-linecap="round" stroke-linejoin="round"/>
<path d="M995.806 794.152V822.234" stroke="#14143F" stroke-width="60.055" stroke-miterlimit="10" stroke-linecap="round" stroke-linejoin="round"/>
<path d="M980.172 708.616C980.172 708.616 979.314 679.065 1001.27 671C1021.49 663.589 1031.8 672.513 1036.92 678.93C1037.78 680.014 1037.94 681.483 1037.31 682.703C1034.64 687.967 1023.69 701.454 980.172 708.616Z" fill="#F9D225"/>
<path d="M967.362 708.345C967.362 708.345 972.988 679.11 963.928 669.847C963.409 669.328 963.612 668.447 964.312 668.221C968.379 666.888 979.02 664.109 981.754 671C985.165 679.54 979.201 710.311 979.201 710.311L967.362 708.345Z" fill="#FF653C"/>
<path d="M1052.31 747.656C1052.31 786.719 1019.46 806.736 979.088 806.736C938.715 806.736 906.091 790.627 906.091 747.656C906.091 714.242 931.079 691.22 978.207 706.967C981.573 708.097 985.256 707.848 988.464 706.312C1034.1 684.6 1052.31 714.197 1052.31 747.656Z" fill="#00DF00"/>
<path d="M1041.56 768.645L1078.68 765.482" stroke="#FFECD4" stroke-width="64.826" stroke-miterlimit="10" stroke-linecap="round" stroke-linejoin="round"/>
<path d="M1072.4 741.556V681.031C1072.4 681.031 1088.19 687.605 1088.03 708.616C1087.89 726.419 1079.72 736.202 1079.72 736.202V741.579H1072.4V741.556Z" fill="#FFECD4"/>
<mask id="mask0_1_2" style="mask-type:luminance" maskUnits="userSpaceOnUse" x="1072" y="681" width="17" height="61">
<path d="M1072.4 741.556V681.031C1072.4 681.031 1088.19 687.605 1088.03 708.616C1087.89 726.419 1079.72 736.202 1079.72 736.202V741.579H1072.4V741.556Z" fill="white"/>
</mask>
<g mask="url(#mask0_1_2)">
<path d="M1070.29 682.657C1070.29 682.657 1069.62 690.158 1076.19 690.136C1082.77 690.113 1081.64 692.824 1082.09 697.569C1082.54 702.313 1080.96 713.835 1083.44 712.706C1085.93 711.576 1083.24 695.648 1084.37 695.264C1085.48 694.857 1088.05 694.293 1088.05 694.293C1088.05 694.293 1079.9 674.276 1072.42 677.348C1064.92 680.398 1070.29 682.657 1070.29 682.657Z" fill="#FF653C"/>
</g>
<path d="M1072.94 741.556H1079.13C1080.55 741.556 1081.7 742.844 1081.77 744.471C1082.04 752.401 1082.61 774.361 1080.69 784.573C1080.23 786.967 1078.38 788.662 1076.26 788.662H1073.01C1071.54 788.662 1070.36 787.306 1070.36 785.612L1070.29 744.606C1070.29 742.934 1071.49 741.556 1072.94 741.556Z" fill="#14143F"/>
<path d="M929.52 771.582V810.87" stroke="#FFECD4" stroke-width="64.826" stroke-miterlimit="10" stroke-linecap="round" stroke-linejoin="round"/>
<path d="M1087.94 756.919C1087.94 756.919 1094.29 743.002 1083.31 743.002C1072.33 743.002 1068.17 748.854 1070.14 754.954C1072.1 761.054 1087.94 756.919 1087.94 756.919Z" fill="#FFECD4"/>
<path d="M1084.26 765.73C1086.27 765.279 1087.92 763.81 1088.57 761.844C1089.61 758.749 1089.88 754.231 1083.87 752.333C1074.34 749.306 1067.47 756.626 1070.16 763.11C1072.08 767.741 1079.94 766.702 1084.26 765.73Z" fill="#FFECD4"/>
<path d="M1085.07 773.615C1086.38 773.231 1087.4 772.124 1087.74 770.746C1088.39 767.967 1088.53 763.426 1083.08 761.844C1075.02 759.517 1067.47 764.443 1070.14 771.424C1072.19 776.823 1081.09 774.813 1085.07 773.615Z" fill="#FFECD4"/>
<path d="M1085.07 782.81C1086.38 782.404 1087.4 781.251 1087.74 779.783C1088.39 776.869 1088.53 772.079 1083.08 770.407C1075.02 767.944 1067.47 773.141 1070.14 780.506C1072.19 786.199 1081.09 784.076 1085.07 782.81Z" fill="#FFECD4"/>
<path d="M959.184 719.325C946.961 719.325 937.066 729.334 937.066 741.669C937.066 744.945 937.766 748.04 939.009 750.842C939.144 750.842 939.28 750.842 939.415 750.842C947.978 750.842 955.027 756.513 955.817 763.765C956.924 763.946 958.054 764.013 959.206 764.013C971.429 764.013 981.324 754.005 981.324 741.669C981.324 729.334 971.406 719.325 959.184 719.325Z" fill="#F2F2F2"/>
<path d="M936.84 809.899C936.84 809.899 947.097 810.396 947.097 814.779C947.097 819.681 936.84 819.388 936.84 819.388C936.84 819.388 937.811 828.696 933.18 828.944C930.017 829.103 929.52 827.724 929.52 827.724C929.52 827.724 929.52 829.193 926.357 829.193C921.951 829.193 923.194 818.936 923.194 818.936C923.194 818.936 913.185 819.433 913.682 814.779C914.179 810.147 923.578 809.153 923.578 809.153L936.84 809.899Z" fill="#FFECD4"/>
<path d="M988.938 822.234V833.305C988.938 836.061 990.994 838.298 993.547 838.298H1014.87C1017.61 838.298 1019.73 835.722 1019.44 832.763C1018.9 827.363 1016.25 819.84 1005.72 819.071C989.164 817.829 988.938 822.234 988.938 822.234ZM945.877 823.658V830.323C945.877 834.547 948.859 837.981 952.541 837.981H974.637C977.1 837.981 979.043 835.541 978.839 832.717C978.365 826.73 975.676 817.648 963.793 816.609C958.754 816.157 955.14 816.021 952.541 816.021C948.836 816.021 945.877 819.456 945.877 823.658Z" fill="#FF653C"/>
<path d="M959.184 755.383C966.683 755.383 972.762 749.243 972.762 741.669C972.762 734.095 966.683 727.956 959.184 727.956C951.685 727.956 945.606 734.095 945.606 741.669C945.606 749.243 951.685 755.383 959.184 755.383Z" fill="#14143F"/>
<path d="M1026.55 750.819C1026.58 750.819 1026.6 750.819 1026.62 750.819C1027.87 748.018 1028.57 744.923 1028.57 741.669C1028.57 729.334 1018.67 719.325 1006.45 719.325C994.225 719.325 984.329 729.334 984.329 741.669C984.329 754.005 994.225 764.013 1006.45 764.013C1007.71 764.013 1008.96 763.9 1010.18 763.697C1010.99 756.467 1018.01 750.819 1026.55 750.819Z" fill="#F2F2F2"/>
<path d="M1006.42 755.383C1013.92 755.383 1020 749.243 1020 741.669C1020 734.095 1013.92 727.956 1006.42 727.956C998.926 727.956 992.847 734.095 992.847 741.669C992.847 749.243 998.926 755.383 1006.42 755.383Z" fill="#14143F"/>
<path d="M920.483 770.972C921.251 767.425 924.866 764.781 929.068 764.623C933.586 764.443 937.721 767.154 938.534 770.972M1040.22 759.992C1036.79 761.393 1034.42 764.601 1034.12 768.283C1033.83 772.034 1035.73 775.671 1039 777.569" stroke="black" stroke-width="3.57" stroke-miterlimit="10" stroke-linecap="round" stroke-linejoin="round"/>
<path d="M1009.7 765.595C1009.88 764.307 1010.79 758.907 1015.96 754.863C1020.43 751.339 1025.36 751 1026.92 750.955" stroke="black" stroke-width="3.69" stroke-miterlimit="10" stroke-linecap="round" stroke-linejoin="round"/>
<path d="M935.755 752.039C936.523 751.746 943.166 749.306 949.424 753.621C954.914 757.394 956.089 763.584 956.269 764.646M968.582 704.685C971.858 705.182 975.925 706.154 980.308 708.097C982.228 708.955 983.923 709.859 985.436 710.785M982.002 705.431C982.002 705.431 999.828 682.002 1017.63 685.414M1002.02 680.037C1002.02 680.037 994.27 686.34 995.467 692.327" stroke="black" stroke-width="3.825" stroke-miterlimit="10" stroke-linecap="round" stroke-linejoin="round"/>
<path d="M992.756 766.928C992.982 769.481 987.673 772.779 982.025 772.779C976.354 772.779 972.265 769.481 972.265 766.928C972.265 764.375 974.953 761.799 982.522 765.956C985.188 764.013 992.259 761.573 992.756 766.928Z" fill="#14143F"/>
<path d="M972.242 767.515V797.111C972.242 797.721 972.739 798.218 973.349 798.218C973.959 798.218 974.456 797.721 974.456 797.111V773.886C974.456 773.615 974.682 773.412 974.931 773.412C975.202 773.412 975.405 773.638 975.405 773.886V774.79C975.405 775.264 975.789 775.648 976.264 775.648C976.738 775.648 977.122 775.264 977.122 774.79V771.943C977.122 771.921 977.122 771.921 977.122 771.898C977.145 771.604 976.399 770.362 974.185 769.39C973.914 769.255 972.242 767.199 972.242 767.515Z" fill="#FF653C"/>
<path d="M1083.87 752.333C1078.31 750.571 1073.66 752.333 1071.27 755.383M1083.06 761.844C1078.45 760.511 1073.98 761.551 1071.54 764.013M1083.06 770.43C1078.45 769.029 1073.98 770.136 1071.54 772.711" stroke="black" stroke-width="3.57" stroke-miterlimit="10" stroke-linecap="round" stroke-linejoin="round"/>
<path d="M296.911 689.274C306.648 689.274 314.541 681.381 314.541 671.644C314.541 661.908 306.648 654.015 296.911 654.015C287.175 654.015 279.281 661.908 279.281 671.644C279.281 681.381 287.175 689.274 296.911 689.274Z" fill="#FFAC9C"/>
<path d="M314.393 671.793C321.184 671.793 326.689 666.287 326.689 659.496C326.689 652.705 321.184 647.2 314.393 647.2C307.602 647.2 302.096 652.705 302.096 659.496C302.096 666.287 307.602 671.793 314.393 671.793Z" fill="#FFAC9C"/>
<path d="M336.022 675.941C344.122 675.941 350.689 669.374 350.689 661.274C350.689 653.174 344.122 646.607 336.022 646.607C327.922 646.607 321.356 653.174 321.356 661.274C321.356 669.374 327.922 675.941 336.022 675.941Z" fill="#F2F2F2"/>
<path d="M345.652 663.2C351.543 663.2 356.319 658.424 356.319 652.533C356.319 646.642 351.543 641.867 345.652 641.867C339.761 641.867 334.985 646.642 334.985 652.533C334.985 658.424 339.761 663.2 345.652 663.2Z" fill="#FFAC9C"/>
<path d="M357.504 659.644C365.195 659.644 371.43 653.41 371.43 645.719C371.43 638.027 365.195 631.793 357.504 631.793C349.813 631.793 343.578 638.027 343.578 645.719C343.578 653.41 349.813 659.644 357.504 659.644Z" fill="#FFAC9C"/>
<path d="M373.8 657.867C378.546 657.867 382.393 654.02 382.393 649.274C382.393 644.529 378.546 640.681 373.8 640.681C369.054 640.681 365.207 644.529 365.207 649.274C365.207 654.02 369.054 657.867 373.8 657.867Z" fill="#FFAC9C"/>
<path d="M311.044 688.889C311.044 688.889 285.059 668.207 268.289 684.919C251.519 701.63 252.881 721.422 241.948 721.659C231.015 721.896 223.489 730.044 227.904 739.111C233.919 751.496 264.378 745.689 272.733 731.052C281.089 716.385 279.963 683.911 300.259 689.778C320.556 695.615 311.044 688.889 311.044 688.889Z" fill="#FF653C"/>
<path d="M283.596 700.754C284.324 697.984 283.247 695.3 281.19 694.759C279.132 694.218 276.874 696.024 276.145 698.794C275.417 701.563 276.494 704.247 278.551 704.788C280.609 705.33 282.867 703.523 283.596 700.754Z" fill="#F2F2F2"/>
<path d="M279.744 715.865C280.472 713.095 279.395 710.412 277.338 709.87C275.28 709.329 273.022 711.136 272.294 713.905C271.565 716.675 272.642 719.358 274.7 719.9C276.757 720.441 279.015 718.634 279.744 715.865Z" fill="#F2F2F2"/>
<path d="M275.924 730.505C277.179 727.931 276.647 725.088 274.735 724.156C272.823 723.223 270.255 724.554 269 727.128C267.745 729.702 268.277 732.544 270.189 733.477C272.101 734.409 274.669 733.079 275.924 730.505Z" fill="#F2F2F2"/>
<path d="M264.08 742.484C266.56 741.052 267.986 738.88 267.266 737.633C266.546 736.386 263.952 736.536 261.472 737.968C258.992 739.4 257.565 741.571 258.285 742.819C259.005 744.066 261.6 743.916 264.08 742.484Z" fill="#F2F2F2"/>
<path d="M247.165 748.448C249.997 748.023 252.119 746.523 251.905 745.099C251.692 743.675 249.222 742.866 246.39 743.291C243.559 743.717 241.436 745.216 241.65 746.64C241.864 748.064 244.333 748.874 247.165 748.448Z" fill="#F2F2F2"/>
<path d="M283.195 700.711C283.674 698.891 282.971 697.129 281.626 696.775C280.281 696.421 278.803 697.609 278.324 699.429C277.845 701.249 278.547 703.012 279.893 703.365C281.238 703.719 282.716 702.531 283.195 700.711Z" fill="#8E52FF"/>
<path d="M279.343 715.822C279.822 714.002 279.12 712.24 277.774 711.886C276.429 711.532 274.951 712.721 274.472 714.541C273.993 716.36 274.696 718.123 276.041 718.477C277.386 718.83 278.865 717.642 279.343 715.822Z" fill="#8E52FF"/>
<path d="M275.738 730.02C276.388 728.254 276.018 726.493 274.912 726.086C273.807 725.679 272.383 726.781 271.734 728.547C271.084 730.313 271.453 732.075 272.559 732.482C273.665 732.888 275.088 731.787 275.738 730.02Z" fill="#8E52FF"/>
<path d="M263.997 742.483C265.259 741.755 265.976 740.636 265.6 739.984C265.223 739.332 263.896 739.394 262.635 740.122C261.373 740.85 260.656 741.969 261.032 742.621C261.409 743.273 262.736 743.211 263.997 742.483Z" fill="#8E52FF"/>
<path d="M247.166 748.29C248.613 748.128 249.718 747.389 249.634 746.641C249.55 745.893 248.309 745.419 246.862 745.581C245.414 745.744 244.309 746.482 244.393 747.23C244.477 747.978 245.719 748.453 247.166 748.29Z" fill="#8E52FF"/>
<path d="M313.089 692.267C313.089 692.267 334.63 653.748 318.896 629.778C303.163 605.807 277.948 619.674 269.563 608.563C261.178 597.452 277.563 577.215 302.837 582.933C328.111 588.652 365.711 612.533 339.667 668.741C313.622 724.948 313.089 692.267 313.089 692.267Z" fill="#FF653C"/>
<path d="M283.191 589.024C285.305 588.383 286.607 586.505 286.099 584.829C285.59 583.154 283.465 582.315 281.351 582.956C279.237 583.597 277.935 585.475 278.443 587.151C278.951 588.826 281.077 589.665 283.191 589.024Z" fill="#F2F2F2"/>
<path d="M298.556 584.681C298.711 582.937 297.053 581.364 294.853 581.169C292.652 580.973 290.742 582.228 290.587 583.973C290.432 585.717 292.091 587.289 294.291 587.485C296.492 587.68 298.401 586.425 298.556 584.681Z" fill="#F2F2F2"/>
<path d="M310.286 586.395C310.441 584.651 308.783 583.078 306.582 582.883C304.381 582.687 302.472 583.942 302.317 585.686C302.162 587.431 303.82 589.003 306.021 589.199C308.221 589.394 310.131 588.139 310.286 586.395Z" fill="#F2F2F2"/>
<path d="M321.07 591.975C321.807 590.386 320.778 588.346 318.774 587.417C316.77 586.488 314.548 587.023 313.812 588.612C313.076 590.2 314.104 592.241 316.108 593.17C318.113 594.099 320.334 593.564 321.07 591.975Z" fill="#F2F2F2"/>
<path d="M330.898 598.294C331.899 596.857 331.242 594.669 329.43 593.405C327.618 592.142 325.337 592.282 324.335 593.718C323.334 595.154 323.991 597.343 325.803 598.606C327.615 599.87 329.896 599.73 330.898 598.294Z" fill="#F2F2F2"/>
<path d="M339.686 606.868C340.688 605.432 340.031 603.243 338.219 601.98C336.406 600.716 334.126 600.856 333.124 602.292C332.123 603.728 332.78 605.917 334.592 607.181C336.404 608.444 338.685 608.304 339.686 606.868Z" fill="#F2F2F2"/>
<path d="M344.371 618.938C345.94 618.162 346.418 615.927 345.438 613.947C344.458 611.967 342.391 610.992 340.822 611.769C339.253 612.546 338.775 614.78 339.755 616.76C340.735 618.74 342.802 619.715 344.371 618.938Z" fill="#F2F2F2"/>
<path d="M346.667 632.816C348.411 632.659 349.664 630.748 349.466 628.548C349.268 626.347 347.694 624.691 345.95 624.848C344.206 625.004 342.953 626.915 343.151 629.116C343.349 631.316 344.923 632.972 346.667 632.816Z" fill="#F2F2F2"/>
<path d="M349.478 643.525C350.12 641.411 349.283 639.285 347.608 638.775C345.933 638.266 344.054 639.566 343.411 641.68C342.769 643.794 343.606 645.92 345.281 646.429C346.956 646.939 348.835 645.638 349.478 643.525Z" fill="#F2F2F2"/>
<path d="M282.533 586.944C284.131 586.46 285.175 585.242 284.867 584.224C284.558 583.206 283.013 582.774 281.415 583.258C279.818 583.742 278.774 584.96 279.082 585.978C279.391 586.996 280.936 587.429 282.533 586.944Z" fill="#8E52FF"/>
<path d="M297.431 583.902C297.525 582.843 296.254 581.864 294.591 581.716C292.929 581.569 291.505 582.308 291.41 583.367C291.316 584.427 292.588 585.405 294.25 585.553C295.913 585.701 297.337 584.962 297.431 583.902Z" fill="#8E52FF"/>
<path d="M309.519 585.747C309.743 584.707 308.602 583.579 306.971 583.228C305.339 582.876 303.835 583.434 303.611 584.474C303.386 585.513 304.527 586.641 306.159 586.993C307.791 587.345 309.295 586.787 309.519 585.747Z" fill="#8E52FF"/>
<path d="M320.567 590.835C321.015 589.87 320.149 588.519 318.635 587.817C317.121 587.116 315.53 587.329 315.083 588.294C314.636 589.259 315.501 590.61 317.016 591.312C318.53 592.014 320.12 591.8 320.567 590.835Z" fill="#8E52FF"/>
<path d="M330.514 596.702C331.045 595.781 330.305 594.357 328.859 593.523C327.414 592.688 325.811 592.758 325.279 593.68C324.747 594.601 325.488 596.024 326.933 596.859C328.379 597.693 329.982 597.623 330.514 596.702Z" fill="#8E52FF"/>
<path d="M339.267 605.503C339.875 604.63 339.259 603.149 337.89 602.195C336.52 601.24 334.917 601.173 334.309 602.046C333.701 602.918 334.317 604.399 335.686 605.354C337.056 606.309 338.659 606.375 339.267 605.503Z" fill="#8E52FF"/>
<path d="M344.813 617.349C345.734 616.817 345.804 615.214 344.97 613.768C344.135 612.323 342.712 611.582 341.791 612.114C340.87 612.646 340.799 614.249 341.634 615.694C342.469 617.14 343.892 617.88 344.813 617.349Z" fill="#8E52FF"/>
<path d="M347.325 631.642C348.376 631.48 349.021 630.01 348.765 628.361C348.509 626.711 347.45 625.506 346.399 625.669C345.348 625.832 344.703 627.301 344.958 628.951C345.214 630.6 346.274 631.805 347.325 631.642Z" fill="#8E52FF"/>
<path d="M348.973 643.538C349.531 641.965 349.171 640.401 348.168 640.046C347.166 639.69 345.901 640.678 345.343 642.251C344.785 643.824 345.145 645.387 346.148 645.743C347.15 646.098 348.415 645.111 348.973 643.538Z" fill="#8E52FF"/>
<path d="M349.385 661.185C349.385 661.185 346.541 608.948 396.111 609.57C445.681 610.193 438.926 647.763 412.822 646.963C398.896 646.548 392.704 634.785 381.622 637.541C370.541 640.296 366.481 667.704 366.481 667.704C366.481 667.704 349.385 680.089 349.385 661.185Z" fill="#F9D225"/>
<path d="M361.154 642.845C361.926 640.343 360.904 637.807 358.871 637.18C356.838 636.552 354.564 638.072 353.793 640.574C353.021 643.076 354.043 645.612 356.076 646.24C358.108 646.867 360.382 645.347 361.154 642.845Z" fill="#F2F2F2"/>
<path d="M366.465 630.843C367.622 628.494 367.012 625.828 365.104 624.888C363.196 623.948 360.711 625.09 359.554 627.439C358.397 629.788 359.007 632.454 360.915 633.394C362.823 634.334 365.308 633.192 366.465 630.843Z" fill="#F2F2F2"/>
<path d="M375.32 622.653C377.23 620.862 377.599 618.153 376.144 616.601C374.689 615.049 371.961 615.243 370.051 617.033C368.141 618.824 367.772 621.534 369.227 623.086C370.682 624.638 373.41 624.444 375.32 622.653Z" fill="#F2F2F2"/>
<path d="M386.352 618.224C388.818 617.342 390.236 615.004 389.519 613.001C388.803 610.998 386.224 610.088 383.758 610.97C381.293 611.852 379.875 614.19 380.592 616.193C381.308 618.196 383.887 619.106 386.352 618.224Z" fill="#F2F2F2"/>
<path d="M404.256 613.547C404.395 611.424 402.389 609.565 399.776 609.394C397.163 609.224 394.933 610.807 394.795 612.93C394.656 615.053 396.662 616.912 399.275 617.082C401.888 617.252 404.118 615.669 404.256 613.547Z" fill="#F2F2F2"/>
<path d="M418.307 616.62C418.779 614.546 417.093 612.393 414.54 611.812C411.987 611.23 409.535 612.44 409.062 614.514C408.59 616.589 410.276 618.741 412.829 619.323C415.382 619.904 417.835 618.694 418.307 616.62Z" fill="#F2F2F2"/>
<path d="M428.701 626.098C429.746 624.245 428.744 621.7 426.463 620.415C424.182 619.129 421.486 619.589 420.442 621.442C419.397 623.295 420.399 625.84 422.68 627.125C424.961 628.411 427.656 627.951 428.701 626.098Z" fill="#F2F2F2"/>
<path d="M358.623 642.042C359.048 640.666 358.479 639.269 357.353 638.922C356.227 638.574 354.971 639.408 354.546 640.784C354.122 642.16 354.69 643.557 355.816 643.905C356.942 644.252 358.199 643.418 358.623 642.042Z" fill="#8E52FF"/>
<path d="M363.867 628.935C364.456 627.621 364.063 626.165 362.988 625.683C361.913 625.201 360.563 625.875 359.974 627.189C359.384 628.502 359.778 629.959 360.853 630.441C361.928 630.923 363.277 630.249 363.867 628.935Z" fill="#8E52FF"/>
<path d="M373.624 620.232C374.744 619.327 375.052 617.85 374.312 616.934C373.571 616.017 372.063 616.008 370.943 616.913C369.823 617.818 369.515 619.295 370.256 620.211C370.996 621.127 372.504 621.137 373.624 620.232Z" fill="#8E52FF"/>
<path d="M385.449 615.248C386.805 614.763 387.582 613.471 387.186 612.361C386.789 611.252 385.368 610.746 384.012 611.23C382.656 611.715 381.878 613.008 382.275 614.117C382.672 615.227 384.093 615.733 385.449 615.248Z" fill="#8E52FF"/>
<path d="M402.156 611.941C402.232 610.765 401.129 609.736 399.692 609.642C398.255 609.549 397.028 610.426 396.952 611.602C396.875 612.778 397.978 613.807 399.415 613.9C400.852 613.994 402.079 613.117 402.156 611.941Z" fill="#8E52FF"/>
<path d="M416.625 614.618C416.84 613.459 415.866 612.307 414.451 612.044C413.035 611.781 411.713 612.507 411.498 613.666C411.283 614.824 412.256 615.976 413.672 616.239C415.088 616.502 416.41 615.776 416.625 614.618Z" fill="#8E52FF"/>
<path d="M427.154 624.558C427.839 623.599 427.445 622.143 426.274 621.306C425.103 620.468 423.598 620.565 422.912 621.524C422.227 622.482 422.621 623.938 423.792 624.776C424.963 625.614 426.468 625.516 427.154 624.558Z" fill="#8E52FF"/>
<path d="M340.022 675.941C340.022 675.941 340.022 657.867 310.096 660.237C287.578 662.015 274.837 649.867 276.022 626.163C277.207 602.459 239.252 606.637 241.652 642.459C243.726 673.57 273.948 675.941 286.689 677.126C299.43 678.311 306.244 678.311 312.763 683.941C319.281 689.57 340.022 675.941 340.022 675.941Z" fill="#00DF00"/>
<path d="M265.887 630.561C266.372 627.573 264.801 624.832 262.378 624.439C259.955 624.046 257.598 626.15 257.113 629.138C256.628 632.126 258.2 634.867 260.623 635.26C263.046 635.653 265.403 633.549 265.887 630.561Z" fill="#F2F2F2"/>
<path d="M262.539 650.653C264.95 650.192 266.444 647.407 265.875 644.434C265.306 641.46 262.891 639.424 260.48 639.885C258.069 640.346 256.576 643.13 257.144 646.104C257.713 649.077 260.128 651.114 262.539 650.653Z" fill="#F2F2F2"/>
<path d="M273.342 663.306C275.321 661.854 275.474 658.698 273.683 656.257C271.893 653.816 268.837 653.015 266.857 654.467C264.878 655.918 264.725 659.074 266.516 661.515C268.307 663.956 271.363 664.758 273.342 663.306Z" fill="#F2F2F2"/>
<path d="M290.959 667.254C291.786 664.943 290.146 662.243 287.295 661.223C284.445 660.202 281.464 661.249 280.637 663.56C279.81 665.871 281.45 668.571 284.3 669.592C287.15 670.612 290.131 669.565 290.959 667.254Z" fill="#F2F2F2"/>
<path d="M306.946 668.958C307.217 666.518 304.998 664.269 301.99 663.934C298.981 663.599 296.322 665.305 296.05 667.745C295.778 670.184 297.997 672.433 301.006 672.768C304.015 673.103 306.674 671.398 306.946 668.958Z" fill="#F2F2F2"/>
<path d="M296.28 675.773C296.551 673.334 294.333 671.084 291.324 670.749C288.315 670.414 285.656 672.12 285.384 674.56C285.112 676.999 287.331 679.248 290.34 679.584C293.349 679.919 296.008 678.213 296.28 675.773Z" fill="#F2F2F2"/>
<path d="M277.625 673.477C278.452 671.166 276.812 668.465 273.962 667.445C271.112 666.425 268.13 667.471 267.303 669.782C266.476 672.093 268.116 674.794 270.966 675.814C273.817 676.834 276.798 675.788 277.625 673.477Z" fill="#F2F2F2"/>
<path d="M259.713 664.788C261.692 663.336 261.845 660.18 260.054 657.739C258.264 655.298 255.207 654.497 253.228 655.949C251.249 657.401 251.096 660.556 252.887 662.997C254.678 665.438 257.734 666.24 259.713 664.788Z" fill="#F2F2F2"/>
<path d="M249.502 650.061C251.913 649.599 253.407 646.815 252.838 643.842C252.269 640.868 249.854 638.832 247.443 639.293C245.032 639.754 243.539 642.538 244.107 645.512C244.676 648.485 247.091 650.522 249.502 650.061Z" fill="#F2F2F2"/>
<path d="M252.85 628.487C253.335 625.499 251.763 622.758 249.34 622.365C246.918 621.972 244.56 624.076 244.076 627.064C243.591 630.052 245.162 632.793 247.585 633.186C250.008 633.579 252.365 631.476 252.85 628.487Z" fill="#F2F2F2"/>
<path d="M250.089 627.591C250.367 625.879 249.466 624.308 248.077 624.083C246.688 623.858 245.336 625.063 245.059 626.775C244.781 628.487 245.682 630.058 247.071 630.283C248.46 630.509 249.812 629.303 250.089 627.591Z" fill="#8E52FF"/>
<path d="M263.423 629.665C263.701 627.953 262.8 626.382 261.41 626.157C260.021 625.931 258.67 627.137 258.392 628.849C258.115 630.561 259.016 632.132 260.405 632.357C261.794 632.582 263.145 631.377 263.423 629.665Z" fill="#8E52FF"/>
<path d="M249.803 644.117C249.844 642.382 248.736 640.95 247.33 640.917C245.923 640.884 244.749 642.262 244.708 643.996C244.667 645.731 245.775 647.163 247.182 647.196C248.588 647.229 249.762 645.851 249.803 644.117Z" fill="#8E52FF"/>
<path d="M262.845 644.738C262.886 643.004 261.778 641.571 260.371 641.538C258.965 641.505 257.791 642.884 257.75 644.618C257.709 646.352 258.817 647.785 260.224 647.818C261.63 647.851 262.804 646.472 262.845 644.738Z" fill="#8E52FF"/>
<path d="M257.598 663.759C258.817 663.055 259.102 661.267 258.235 659.765C257.368 658.262 255.676 657.615 254.458 658.319C253.239 659.022 252.954 660.811 253.821 662.313C254.689 663.815 256.38 664.462 257.598 663.759Z" fill="#8E52FF"/>
<path d="M274.856 674.294C275.482 673.034 274.731 671.386 273.178 670.614C271.625 669.842 269.858 670.237 269.231 671.497C268.605 672.757 269.356 674.405 270.909 675.177C272.462 675.949 274.229 675.554 274.856 674.294Z" fill="#8E52FF"/>
<path d="M287.893 668.072C288.519 666.812 287.768 665.164 286.215 664.392C284.662 663.619 282.895 664.015 282.268 665.275C281.642 666.535 282.393 668.182 283.946 668.955C285.499 669.727 287.266 669.332 287.893 668.072Z" fill="#8E52FF"/>
<path d="M293.207 677.041C293.473 675.659 292.308 674.273 290.605 673.945C288.901 673.617 287.305 674.471 287.039 675.853C286.773 677.235 287.938 678.621 289.641 678.949C291.344 679.277 292.941 678.423 293.207 677.041Z" fill="#8E52FF"/>
<path d="M304.17 670.522C304.436 669.14 303.271 667.754 301.568 667.426C299.865 667.098 298.268 667.952 298.002 669.334C297.736 670.716 298.901 672.102 300.604 672.43C302.308 672.758 303.904 671.904 304.17 670.522Z" fill="#8E52FF"/>
<path d="M270.893 661.556C272.112 660.852 272.397 659.064 271.53 657.562C270.662 656.059 268.971 655.412 267.753 656.116C266.534 656.819 266.249 658.608 267.116 660.11C267.983 661.612 269.675 662.259 270.893 661.556Z" fill="#8E52FF"/>
<path d="M295.548 699.052C300.294 699.052 304.141 694.833 304.141 689.63C304.141 684.426 300.294 680.207 295.548 680.207C290.803 680.207 286.956 684.426 286.956 689.63C286.956 694.833 290.803 699.052 295.548 699.052Z" fill="#FFAC9C"/>
<path d="M307.904 694.252C314.384 694.252 319.637 688.495 319.637 681.393C319.637 674.291 314.384 668.533 307.904 668.533C301.424 668.533 296.17 674.291 296.17 681.393C296.17 688.495 301.424 694.252 307.904 694.252Z" fill="#FFAC9C"/>
<path d="M323.489 691.081C328.971 691.081 333.415 686.213 333.415 680.207C333.415 674.202 328.971 669.333 323.489 669.333C318.007 669.333 313.563 674.202 313.563 680.207C313.563 686.213 318.007 691.081 323.489 691.081Z" fill="#FFAC9C"/>
<path d="M333.296 679.941C337.109 679.941 340.2 676.558 340.2 672.385C340.2 668.212 337.109 664.83 333.296 664.83C329.483 664.83 326.393 668.212 326.393 672.385C326.393 676.558 329.483 679.941 333.296 679.941Z" fill="#FFAC9C"/>
<path d="M346.126 684.474C351.395 684.474 355.667 679.778 355.667 673.985C355.667 668.192 351.395 663.496 346.126 663.496C340.857 663.496 336.585 668.192 336.585 673.985C336.585 679.778 340.857 684.474 346.126 684.474Z" fill="#FFAC9C"/>
<path d="M357.237 679.141C360.641 679.141 363.4 676.116 363.4 672.385C363.4 668.654 360.641 665.63 357.237 665.63C353.833 665.63 351.074 668.654 351.074 672.385C351.074 676.116 353.833 679.141 357.237 679.141Z" fill="#F2F2F2"/>
<path d="M431.43 784.444L419.904 787.644C417.563 788.296 415.104 787.763 413.444 786.252L400.763 774.696L415.874 765.541C418.393 764.03 421.622 764.148 423.815 765.837L434.244 773.926C438.215 776.978 436.615 782.993 431.43 784.444ZM312.941 816.148L324.526 813.156C326.867 812.563 328.733 810.844 329.415 808.711L334.63 792.356L316.97 791.97C314.037 791.911 311.311 793.63 310.244 796.178L305.237 808.385C303.341 813.037 307.756 817.481 312.941 816.148Z" fill="#14143F"/>
<path d="M415.222 768.948C386.926 791.378 350.6 801.096 314.067 796.237C299.341 794.281 287.489 784.8 283.104 771.911C275.756 750.163 283.43 722.667 291.993 693.719L382.926 669.393C409 688.267 428.852 711.23 430.659 736.415C431.548 748.622 425.652 760.652 415.222 768.948Z" fill="#2D2D7F"/>
<path d="M388.437 675.319L291.015 701.363C287.933 702.193 284.763 700.356 283.933 697.274C283.104 694.193 284.941 691.022 288.022 690.193L385.444 664.148C388.526 663.319 391.696 665.156 392.526 668.237C393.356 671.319 391.548 674.489 388.437 675.319Z" fill="#5656B7"/>
<path d="M330.047 739.518C340.322 736.769 346.403 726.134 343.629 715.764C340.855 705.394 330.276 699.216 320.001 701.964C309.726 704.713 303.645 715.348 306.419 725.718C309.193 736.088 319.771 742.267 330.047 739.518Z" fill="#F2F2F2"/>
<path d="M328.11 732.276C334.417 730.589 338.149 724.057 336.445 717.686C334.74 711.315 328.246 707.519 321.938 709.206C315.631 710.893 311.899 717.426 313.603 723.796C315.307 730.167 321.802 733.964 328.11 732.276Z" fill="#14143F"/>
<path d="M378.169 726.661C388.445 723.912 394.526 713.277 391.752 702.907C388.978 692.537 378.399 686.358 368.124 689.107C357.849 691.856 351.768 702.49 354.542 712.861C357.316 723.231 367.894 729.409 378.169 726.661Z" fill="#F2F2F2"/>
<path d="M376.232 719.419C382.54 717.732 386.271 711.199 384.567 704.829C382.863 698.458 376.368 694.661 370.061 696.349C363.754 698.036 360.022 704.568 361.726 710.939C363.43 717.309 369.925 721.106 376.232 719.419Z" fill="#14143F"/>
<path d="M309.385 759.763C309.385 759.763 350.422 730.341 401.859 720.681M401.326 719.97C402.748 721.215 404.17 722.459 405.593 723.733M310.244 757.393C309.356 758.844 308.793 760.504 308.644 762.193" stroke="black" stroke-width="5.008" stroke-miterlimit="10" stroke-linecap="round" stroke-linejoin="round"/>
<path d="M347.133 674.459C347.133 674.459 351.756 652.237 375.311 649.57C398.867 646.904 399.844 660.83 414.926 662.607C430.007 664.385 450.511 651.526 457 659.289C463.519 667.052 459.133 692.533 434.837 694.904C390.393 699.23 388.674 663.111 375.874 666.756L347.133 674.459Z" fill="#F9D225"/>
<path d="M397.894 658.052C399.307 656.91 399.31 654.571 397.901 652.827C396.492 651.084 394.205 650.596 392.792 651.737C391.379 652.879 391.376 655.218 392.785 656.962C394.194 658.705 396.482 659.193 397.894 658.052Z" fill="#F2F2F2"/>
<path d="M408.351 665.748C409.764 664.606 409.767 662.267 408.358 660.523C406.949 658.78 404.661 658.292 403.249 659.433C401.836 660.575 401.833 662.914 403.242 664.658C404.651 666.401 406.938 666.889 408.351 665.748Z" fill="#F2F2F2"/>
<path d="M419.879 667.657C420.782 665.95 420.002 663.766 418.137 662.779C416.271 661.791 414.026 662.374 413.123 664.081C412.219 665.787 413 667.971 414.865 668.959C416.731 669.947 418.976 669.364 419.879 667.657Z" fill="#F2F2F2"/>
<path d="M429.526 667.784C431.397 666.806 432.188 664.625 431.293 662.914C430.398 661.203 428.157 660.609 426.286 661.587C424.415 662.566 423.624 664.746 424.519 666.457C425.414 668.168 427.656 668.762 429.526 667.784Z" fill="#F2F2F2"/>
<path d="M440.962 664.22C442.832 663.242 443.623 661.062 442.728 659.351C441.833 657.64 439.592 657.046 437.721 658.024C435.85 659.002 435.059 661.182 435.954 662.894C436.849 664.605 439.091 665.199 440.962 664.22Z" fill="#F2F2F2"/>
<path d="M451.895 661.554C453.766 660.576 454.557 658.396 453.662 656.685C452.767 654.974 450.525 654.38 448.655 655.358C446.784 656.336 445.993 658.516 446.888 660.227C447.783 661.939 450.024 662.533 451.895 661.554Z" fill="#F2F2F2"/>
<path d="M395.197 672.609C396.677 671.614 396.84 669.266 395.561 667.365C394.282 665.464 392.046 664.73 390.566 665.726C389.086 666.721 388.923 669.07 390.202 670.97C391.481 672.871 393.717 673.605 395.197 672.609Z" fill="#F2F2F2"/>
<path d="M404.861 681.731C406.341 680.735 406.504 678.387 405.225 676.486C403.946 674.586 401.71 673.852 400.23 674.847C398.75 675.843 398.587 678.191 399.866 680.092C401.144 681.993 403.381 682.727 404.861 681.731Z" fill="#F2F2F2"/>
<path d="M415.865 685.491C417.071 684.025 416.695 681.724 415.026 680.352C413.358 678.981 411.028 679.058 409.822 680.524C408.617 681.99 408.993 684.291 410.661 685.663C412.33 687.034 414.66 686.958 415.865 685.491Z" fill="#F2F2F2"/>
<path d="M424.643 686.98C426.713 686.794 428.248 685.058 428.072 683.102C427.897 681.146 426.076 679.711 424.006 679.898C421.936 680.084 420.401 681.82 420.577 683.776C420.753 685.732 422.573 687.166 424.643 686.98Z" fill="#F2F2F2"/>
<path d="M436.315 685.025C438.385 684.839 439.921 683.103 439.745 681.147C439.569 679.191 437.748 677.756 435.678 677.942C433.608 678.129 432.073 679.865 432.249 681.821C432.425 683.777 434.245 685.211 436.315 685.025Z" fill="#F2F2F2"/>
<path d="M447.428 683.93C449.498 683.744 451.033 682.007 450.857 680.051C450.681 678.096 448.861 676.661 446.791 676.847C444.721 677.033 443.186 678.77 443.362 680.725C443.537 682.681 445.358 684.116 447.428 683.93Z" fill="#F2F2F2"/>
<path d="M397.741 655.823C398.284 655.279 397.919 654.031 396.923 653.036C395.928 652.041 394.681 651.675 394.137 652.219C393.593 652.763 393.959 654.011 394.954 655.006C395.949 656.001 397.197 656.367 397.741 655.823Z" fill="#8E52FF"/>
<path d="M408.283 663.355C408.772 662.761 408.286 661.555 407.199 660.661C406.112 659.767 404.835 659.525 404.346 660.119C403.858 660.713 404.343 661.919 405.431 662.813C406.518 663.706 407.795 663.949 408.283 663.355Z" fill="#8E52FF"/>
<path d="M416.378 666.37C417.785 666.37 418.926 665.747 418.926 664.978C418.926 664.209 417.785 663.585 416.378 663.585C414.97 663.585 413.83 664.209 413.83 664.978C413.83 665.747 414.97 666.37 416.378 666.37Z" fill="#8E52FF"/>
<path d="M428.169 664.882C429.555 664.641 430.573 663.831 430.441 663.074C430.309 662.316 429.079 661.897 427.692 662.138C426.306 662.378 425.288 663.188 425.42 663.946C425.552 664.703 426.782 665.123 428.169 664.882Z" fill="#8E52FF"/>
<path d="M439.52 661.308C440.889 660.983 441.856 660.113 441.678 659.365C441.501 658.617 440.247 658.273 438.877 658.598C437.508 658.923 436.542 659.793 436.719 660.541C436.897 661.289 438.151 661.633 439.52 661.308Z" fill="#8E52FF"/>
<path d="M450.412 658.562C451.706 658.008 452.509 656.986 452.206 656.279C451.903 655.572 450.609 655.448 449.315 656.002C448.022 656.556 447.218 657.579 447.521 658.286C447.824 658.993 449.118 659.117 450.412 658.562Z" fill="#8E52FF"/>
<path d="M395.074 669.748C395.618 669.205 395.252 667.957 394.257 666.962C393.262 665.967 392.014 665.601 391.47 666.145C390.926 666.689 391.292 667.936 392.287 668.931C393.282 669.926 394.53 670.292 395.074 669.748Z" fill="#8E52FF"/>
<path d="M405.023 679.059C405.512 678.465 405.026 677.259 403.939 676.365C402.852 675.471 401.575 675.229 401.086 675.823C400.598 676.417 401.083 677.623 402.171 678.517C403.258 679.41 404.535 679.653 405.023 679.059Z" fill="#8E52FF"/>
<path d="M415.186 682.614C415.461 681.688 414.59 680.613 413.241 680.212C411.892 679.811 410.576 680.237 410.301 681.162C410.026 682.088 410.897 683.163 412.246 683.564C413.595 683.964 414.911 683.539 415.186 682.614Z" fill="#8E52FF"/>
<path d="M424.429 684.165C425.816 683.924 426.808 682.971 426.646 682.036C426.484 681.101 425.228 680.538 423.841 680.778C422.455 681.019 421.462 681.973 421.625 682.908C421.787 683.843 423.043 684.406 424.429 684.165Z" fill="#8E52FF"/>
<path d="M436.364 681.537C437.733 681.212 438.678 680.252 438.474 679.392C438.27 678.532 436.994 678.099 435.625 678.424C434.256 678.748 433.311 679.709 433.515 680.568C433.719 681.428 434.994 681.862 436.364 681.537Z" fill="#8E52FF"/>
<path d="M447.434 680.811C448.727 680.256 449.468 679.088 449.088 678.2C448.707 677.313 447.351 677.043 446.057 677.597C444.763 678.151 444.023 679.32 444.403 680.207C444.783 681.095 446.14 681.365 447.434 680.811Z" fill="#8E52FF"/>
<path d="M389.356 582.311C392.547 582.311 395.133 579.724 395.133 576.533C395.133 573.342 392.547 570.756 389.356 570.756C386.165 570.756 383.578 573.342 383.578 576.533C383.578 579.724 386.165 582.311 389.356 582.311Z" fill="#FFAC9C"/>
<path d="M389.652 571.793C389.652 571.793 392.319 572.385 393.207 574.459M393.652 575.674C393.711 575.822 393.8 576.03 393.83 576.207" stroke="white" stroke-width="3" stroke-miterlimit="10" stroke-linecap="round" stroke-linejoin="round"/>
<path d="M355.726 571.941C358.671 571.941 361.059 569.553 361.059 566.607C361.059 563.662 358.671 561.274 355.726 561.274C352.78 561.274 350.393 563.662 350.393 566.607C350.393 569.553 352.78 571.941 355.726 571.941Z" fill="#FFAC9C"/>
<path d="M355.785 561.896C355.785 561.896 358.452 562.489 359.341 564.563M359.785 565.778C359.844 565.926 359.933 566.133 359.963 566.311" stroke="white" stroke-width="3" stroke-miterlimit="10" stroke-linecap="round" stroke-linejoin="round"/>
<path d="M354.837 608.681C357.128 608.681 358.985 606.824 358.985 604.533C358.985 602.242 357.128 600.385 354.837 600.385C352.546 600.385 350.689 602.242 350.689 604.533C350.689 606.824 352.546 608.681 354.837 608.681Z" fill="#FFAC9C"/>
<path d="M355.519 601.185C356.17 601.452 356.941 601.896 357.385 602.696M357.859 603.615C357.919 603.733 357.978 603.881 358.037 604.03" stroke="white" stroke-width="2.351" stroke-miterlimit="10" stroke-linecap="round" stroke-linejoin="round"/>
<path d="M295.281 638.015C298.063 638.015 300.319 635.76 300.319 632.978C300.319 630.196 298.063 627.941 295.281 627.941C292.5 627.941 290.244 630.196 290.244 632.978C290.244 635.76 292.5 638.015 295.281 638.015Z" fill="#FFAC9C"/>
<path d="M295.607 628.741C295.607 628.741 297.563 628.948 298.393 630.37M298.837 631.23C298.896 631.348 298.956 631.467 299.015 631.615" stroke="white" stroke-width="2.176" stroke-miterlimit="10" stroke-linecap="round" stroke-linejoin="round"/>
<path d="M245.504 690.163C248.122 690.163 250.244 688.04 250.244 685.422C250.244 682.804 248.122 680.681 245.504 680.681C242.885 680.681 240.763 682.804 240.763 685.422C240.763 688.04 242.885 690.163 245.504 690.163Z" fill="#FFAC9C"/>
<path d="M246.6 681.778C247.281 682.193 247.993 682.815 248.378 683.704M248.852 684.919C248.911 685.067 249 685.274 249.03 685.452" stroke="white" stroke-width="3" stroke-miterlimit="10" stroke-linecap="round" stroke-linejoin="round"/>
<path d="M229.8 667.941C231.109 667.941 232.17 666.879 232.17 665.57C232.17 664.261 231.109 663.2 229.8 663.2C228.491 663.2 227.43 664.261 227.43 665.57C227.43 666.879 228.491 667.941 229.8 667.941Z" fill="#FFAC9C"/>
<path d="M229.8 663.615C229.8 663.615 230.807 663.852 231.133 664.622M231.311 665.067C231.341 665.126 231.37 665.185 231.37 665.274" stroke="white" stroke-width="1.127" stroke-miterlimit="10" stroke-linecap="round" stroke-linejoin="round"/>
<path d="M311.578 649.215C311.578 649.215 315.844 647.911 318.511 650.281M319.637 651.111C319.637 651.111 320.022 651.2 320.319 651.793M293.652 655.348C293.652 655.348 296.081 654.459 298.274 655.348M299.578 655.941C299.578 655.941 300.17 655.941 300.467 656.237M303.726 670.756C303.726 670.756 307.074 669.274 309.652 670.459M311.133 671.052C311.133 671.052 311.726 671.348 312.319 671.793M292.763 681.719C292.763 681.719 296.911 680.237 299.874 681.126M322.363 670.37C321.148 670.519 319.963 671.081 319.074 671.941M334.896 665.837C334.63 665.689 334.304 665.63 333.978 665.63M332.852 665.748C331.489 665.807 330.185 666.459 329.326 667.496M342.511 665.126C344.052 664.296 345.889 664.059 347.578 664.444" stroke="white" stroke-width="3" stroke-miterlimit="10" stroke-linecap="round" stroke-linejoin="round"/>
<path d="M351.993 663.585C351.993 663.585 357.563 654.252 366.333 651.793" stroke="black" stroke-width="5.008" stroke-miterlimit="10" stroke-linecap="round" stroke-linejoin="round"/>
<g clip-path="url(#clip2_1_2)">
<path d="M1243.78 849.328C1230.53 853.867 1218.29 861.339 1208.2 871.073C1201.1 877.93 1194.71 886.988 1195.71 896.804C1196.39 903.63 1200.55 909.596 1205.23 914.592C1218.16 928.413 1235.84 937.119 1254.12 941.993C1272.41 946.867 1291.46 948.123 1310.38 948.914C1322.96 949.442 1335.55 949.75 1348.14 949.832C1358.85 949.9 1369.61 949.794 1380.23 948.418C1389.79 947.178 1399.22 944.944 1408.31 941.728C1416.2 938.944 1423.92 935.36 1430.33 929.962C1436.72 924.559 1441.72 917.175 1443.01 908.896C1444.01 902.414 1442.72 895.749 1440.51 889.583C1434.87 873.817 1423.05 860.379 1408.16 852.769C1396.97 847.05 1384.4 844.633 1371.93 843.075C1353.18 840.722 1334.24 840.182 1315.33 840.012C1291.56 839.781 1267.65 841.168 1243.78 849.328Z" fill="#9FBF8D"/>
<path d="M1377.11 816.111C1394.67 812.125 1398.4 811.578 1399.38 810.705C1400.29 809.878 1401.25 800.601 1405.39 796.582C1411.46 790.684 1422.97 794.383 1417.47 807.721C1416.94 809.014 1416.38 810.588 1417.25 811.674C1417.95 812.546 1425.95 813.66 1428.13 820.436C1430.31 827.176 1424.99 834.877 1415.63 832.569C1411.15 831.467 1405.02 826.558 1403.81 826.245C1400.71 825.466 1389.65 830.478 1378.84 834.926C1379.11 829.095 1378.51 823.209 1377.11 816.111Z" fill="#FFEAC0"/>
<path d="M1239.6 855.04C1228.74 861.19 1220.18 871.748 1217.58 883.951C1214.97 896.17 1218.82 909.814 1228.2 918.072C1234.49 923.611 1242.67 926.464 1250.8 928.571C1265.39 932.35 1280.43 934.101 1295.4 935.794C1312.64 937.746 1329.96 939.601 1347.3 939.106C1364.64 938.611 1382.11 935.665 1397.85 928.36C1405.39 924.865 1412.59 920.285 1417.99 913.957C1423.37 907.623 1426.82 899.36 1426.18 891.051C1425.58 882.994 1421.18 875.529 1415.29 869.999C1409.39 864.463 1402.08 860.664 1394.59 857.61C1380.63 851.919 1365.79 848.601 1350.88 846.381C1313.23 840.743 1271.34 837.093 1239.6 855.04Z" fill="#FFFFBD"/>
<path d="M1413.35 853.726C1417.81 853.199 1426.73 852.146 1426.73 852.146C1427.26 852.075 1427.84 852.005 1428.23 851.665C1428.81 851.148 1428.83 850.276 1428.84 849.522C1429.13 828.774 1466.56 821.836 1448.69 853.299C1469.38 858.635 1460.2 882.449 1439.96 872.483C1438.59 871.801 1437.18 871.073 1435.65 870.959C1433.37 870.782 1420.86 874.485 1408.97 877.683C1410.45 869.665 1411.13 861.482 1413.35 853.726Z" fill="#FFEAC0"/>
<path d="M1281.43 882.245C1264.81 887.046 1244.76 884.383 1235.48 876.004C1226.95 868.288 1217.01 843.355 1250.98 815.795C1263.74 805.444 1279.43 797.107 1295.31 799.158C1292.14 808.469 1281.45 814.957 1281.81 824.754C1282.17 834.186 1297.09 845.647 1290.08 869.564C1288.46 875.068 1284.28 881.417 1281.43 882.245ZM1316.24 816.089C1325.54 812.103 1334.91 808.092 1344.67 805.87C1354.42 803.649 1364.71 803.272 1373.99 806.533C1377.72 807.849 1381.3 809.747 1384.11 812.594C1387.39 815.903 1389.49 820.29 1390.99 824.824C1392.34 828.872 1393.27 833.183 1392.72 837.504C1391.99 843.479 1388.51 848.924 1384.07 852.906C1379.65 856.893 1374.32 859.557 1368.95 861.846C1362.74 864.486 1356.36 866.671 1349.87 868.372C1340.99 870.714 1331.5 872.099 1323.06 868.984C1320.81 868.146 1318.65 866.976 1317.02 865.155C1315.5 863.424 1314.57 861.197 1313.74 858.987C1311.3 852.375 1309.53 845.454 1308.52 838.389C1307.93 834.286 1307.61 829.982 1308.81 825.947C1310.04 821.923 1312.81 817.572 1316.24 816.089Z" fill="#DD8345"/>
<path d="M1407.68 886.444C1410.27 872.772 1404.29 859.022 1397.66 846.797C1389.91 832.501 1380.54 818.335 1366.58 809.99C1351.72 801.118 1333.32 799.994 1316.23 802.747C1283.04 808.112 1252.41 827.765 1233.7 855.705C1231.22 859.405 1228.9 863.35 1228.03 867.725C1226.42 875.802 1230.04 884.128 1235.19 890.582C1242.82 900.148 1253.66 906.656 1264.91 911.483C1291.78 923.007 1321.66 925.781 1350.88 924.875C1363.28 924.496 1376.08 923.346 1387.03 917.536C1397.98 911.726 1405.12 899.937 1407.68 886.444Z" fill="#FA9D58"/>
<path d="M1292.16 921.901C1304.47 924.919 1310.1 910.541 1312.64 903.054C1318.57 885.49 1313.99 883.72 1315.13 874.253C1316.84 860.162 1325.71 847.008 1333.47 838.579C1335.71 836.158 1318.27 825.157 1294.86 834.014C1257.74 848.073 1254.24 866.417 1256.57 880.26C1257.27 884.474 1282.91 919.631 1292.16 921.901Z" fill="#DD8345"/>
<path d="M1402.43 848.916C1395.99 841.187 1385.2 839.228 1375.23 838.53C1363.3 837.702 1350.66 838.184 1340.23 844.456C1326.08 852.965 1319.15 870.19 1316.03 886.653C1314.61 894.21 1313.78 902.17 1316.11 909.396C1318.45 916.622 1324.62 922.928 1332.06 923.101C1340.99 923.311 1348.01 915.338 1353.85 908.24C1365.7 893.876 1378.4 880.264 1391.87 867.511C1397.31 862.339 1403.37 856.23 1402.43 848.916Z" fill="#DD8345"/>
<path d="M1352.13 931.976C1338.94 930.315 1324.54 925.38 1318.74 913.42C1316.36 908.503 1315.74 902.868 1316.06 897.398C1317.06 879.714 1327.77 863.237 1342.71 853.733C1369.17 836.866 1410.6 840.973 1421.69 860.72C1426.37 869.043 1425.7 879.521 1422.18 888.399C1416.78 902.032 1399.91 920.339 1394.4 924.838C1377.23 938.852 1352.13 931.976 1352.13 931.976Z" fill="#FA9D58"/>
<path d="M1296.95 927.008C1276.34 928.748 1253.1 921.105 1243.75 909.356C1235.15 898.548 1228.27 867.623 1273.86 843.661C1290.98 834.66 1311.2 828.647 1329.61 834.632C1324.04 844.622 1310.1 849.639 1308.62 860.983C1307.2 871.918 1322.64 888.477 1309.66 914.397C1306.67 920.345 1300.49 926.703 1296.95 927.008Z" fill="#FA9D58"/>
<path d="M1382.45 858.549C1377.31 860.123 1372.02 861.233 1366.66 861.838C1367.27 861.399 1377.2 857.344 1382.45 858.549ZM1381.69 852.368C1384.85 850.874 1391.64 848.851 1395.36 851.163C1394.8 851.911 1393.83 852.219 1392.92 852.446C1388.97 853.415 1384.83 853.522 1380.84 852.77C1381.44 852.603 1381.4 852.52 1381.69 852.368ZM1383.11 871.088C1387.28 868.974 1392.41 867.825 1396.55 869.992C1392.56 870.395 1388.56 870.654 1383.11 871.088ZM1367.68 871.264C1364.58 871.45 1361.52 872.047 1358.57 873.012C1357.48 873.379 1356.32 873.878 1355.82 874.925C1356.77 875.453 1357.92 875.313 1359 875.11C1362.19 874.51 1365.32 873.524 1368.28 872.186C1367.9 872.049 1367.51 871.913 1367.68 871.264ZM1343.53 875.034C1340.93 873.588 1337.89 872.091 1335.08 873.068C1338.04 874.764 1341.49 875.596 1343.53 875.034ZM1338 823.86C1341.34 823.053 1344.8 822.788 1348.21 823.06C1345.57 823.82 1342.81 824.111 1338 823.86ZM1345.9 812.652C1348.12 811.827 1350.71 812.01 1352.8 813.168C1352.65 813.632 1352.08 813.774 1351.6 813.81C1349.4 813.989 1347.19 813.819 1345.9 812.652ZM1359.97 815.332C1361.27 815.416 1362.56 815.135 1363.84 815.214C1365.12 815.292 1366.53 815.866 1367.02 817.057C1364.7 817.434 1362.23 816.828 1359.97 815.332ZM1328.66 812.287C1330.14 811.281 1331.62 810.26 1333.31 809.675C1335.01 809.09 1336.93 808.966 1338.53 809.744C1338.29 810.468 1337.39 810.665 1336.64 810.741C1334.67 810.936 1332.7 810.971 1328.66 812.287ZM1317.22 819.662C1319.82 818.316 1322.78 817.65 1325.71 817.784C1323.73 819.297 1321.06 819.898 1317.22 819.662ZM1275.39 902.126C1276.89 903.216 1278.58 904.319 1280.44 904.189C1283.19 903.981 1285.24 901.129 1287.99 901.059C1286.95 900.277 1285.49 900.426 1284.28 900.908C1283.08 901.391 1282.01 902.164 1280.78 902.554C1279.56 902.944 1278.02 902.845 1277.21 901.847C1276.96 901.533 1276.78 901.16 1276.45 900.937C1276.11 900.715 1275.53 900.8 1275.47 901.209C1275.43 901.573 1275.54 901.976 1275.39 902.126ZM1282.45 908.164C1283.85 908.974 1285.46 909.824 1286.99 909.338C1288.04 909.006 1288.81 908.124 1289.58 907.35C1290.36 906.576 1291.3 905.811 1292.4 905.824C1291.72 907.821 1290.15 909.518 1288.22 910.345C1287 910.873 1285.6 911.064 1284.35 910.668C1283.07 910.282 1281.99 909.222 1282.45 908.164ZM1263.53 901.254C1263.93 902.602 1264.39 904.075 1265.58 904.845C1266.46 905.418 1267.56 905.503 1268.61 905.427C1269.9 905.337 1271.16 905.045 1272.35 904.557C1272.85 904.357 1273.37 904.111 1273.9 904.215C1274.03 904.659 1273.54 905.034 1273.1 905.204C1272.08 905.634 1271.01 905.976 1269.92 906.225C1268.48 906.554 1266.95 906.696 1265.54 906.245C1264.13 905.794 1262.89 904.593 1262.73 903.121C1262.68 902.637 1262.74 902.125 1263.02 901.726C1263.28 901.321 1263.8 901.075 1263.53 901.254ZM1264.81 912.205C1266.64 913.65 1269.02 914.296 1271.36 914.233C1273.69 914.169 1275.97 913.432 1278.03 912.341C1277.66 913.314 1276.68 913.894 1275.73 914.295C1274.3 914.921 1272.8 915.352 1271.25 915.606C1269.82 915.838 1268.32 915.888 1266.99 915.311C1265.7 914.729 1264.62 913.397 1264.81 912.205ZM1278.73 916.709C1279.59 917.826 1281.05 918.35 1282.47 918.354C1283.88 918.358 1285.25 917.9 1286.55 917.347C1289.23 916.239 1291.79 914.789 1294.1 913.031C1293.11 914.278 1291.7 915.121 1290.34 915.944C1288.98 916.767 1287.61 917.591 1286.24 918.408C1285.38 918.929 1284.45 919.459 1283.44 919.427C1282.66 919.405 1281.93 919.026 1281.26 918.631C1280.4 918.115 1279.55 917.538 1278.73 916.709ZM1255.47 905.39C1257.76 907.035 1260.3 908.768 1263.1 908.596C1262.11 909.586 1260.51 909.824 1259.18 909.35C1257.87 908.865 1256.83 907.77 1255.47 905.39ZM1348.59 863.76C1349.9 865.107 1351.78 865.866 1353.64 865.823C1355.52 865.771 1357.35 864.906 1358.59 863.505C1359.17 862.85 1359.67 862.029 1360.5 861.739C1360.66 861.675 1360.82 861.648 1361 861.677C1361.43 861.764 1361.62 862.312 1361.49 862.73C1361.35 863.148 1361 863.454 1360.66 863.729C1358.93 865.145 1357.08 866.394 1355.12 867.472C1354.76 867.669 1354.38 867.861 1353.97 867.853C1353.61 867.845 1353.28 867.674 1352.95 867.487C1351.3 866.554 1349.61 865.399 1348.59 863.76ZM1389.09 859.557C1390.6 859.769 1392.08 859.23 1393.57 858.933C1395.9 858.474 1398.34 858.639 1400.59 859.39C1400.52 859.727 1400.11 859.821 1399.77 859.855C1397.61 860.066 1395.45 860.277 1393.29 860.488C1392.1 860.596 1390.9 860.719 1389.7 860.74C1389.67 860.349 1389.76 859.936 1389.09 859.557Z" fill="#731702"/>
<path d="M1327.62 777.933C1328.57 776.685 1329.92 775.79 1331.04 774.689C1333.2 772.548 1334.48 769.541 1334.51 766.503C1334.58 759.995 1329.44 754.799 1326.28 749.122C1330.92 750.159 1334.98 753.505 1336.89 757.858C1338.8 762.21 1336.92 771.205 1334.55 775.323C1332.42 779.025 1327.68 777.677 1327.45 781.938C1327.35 783.851 1327.4 791.639 1326.49 791.471C1325.15 791.232 1325.43 780.823 1327.62 777.933ZM1327.72 741.021C1318.04 732.084 1317.51 727.689 1322.14 716.694C1324.28 711.616 1326.74 706.17 1331.56 703.516C1323.65 716.7 1326.01 716.042 1324.07 721.812C1321.75 728.651 1323.49 735.1 1327.72 741.021ZM1299.99 792.229C1296.06 791.361 1291.49 789.934 1290.24 786.109C1289.79 784.744 1289.85 783.267 1290.07 781.845C1290.93 776.293 1294.1 771.135 1298.67 767.854C1297.49 771.432 1295.14 774.54 1293.97 778.118C1292.79 781.697 1293.19 786.32 1296.4 788.308C1297.28 788.866 1298.31 789.165 1299.18 789.733C1300.04 790.3 1300.76 791.332 1300.52 792.348C1300.27 793.38 1298.66 793.875 1299.99 792.229ZM1298.6 758.884C1301.84 751.617 1303.81 743.014 1300.37 735.821C1298.98 732.912 1296.8 730.464 1294.89 727.851C1290.1 721.297 1286.91 712.852 1289.21 705.057C1289.46 704.2 1290.6 703.243 1291.02 704.033C1291.52 709.331 1292.04 714.701 1293.81 719.728C1296.27 726.726 1301.05 732.843 1302.7 740.085C1304.42 747.54 1302.43 755.757 1298.6 758.884Z" fill="#FFEAC0"/>
</g>
</g>
<defs>
<clipPath id="clip0_1_2">
<rect width="1512" height="982" fill="white"/>
</clipPath>
<clipPath id="clip1_1_2">
<rect width="255.629" height="255.629" fill="white" transform="translate(211.999 -18) rotate(31.0306)"/>
</clipPath>
<clipPath id="clip2_1_2">
<rect width="324.589" height="324.589" fill="white" transform="translate(1243.28 635.03) rotate(19.6487)"/>
</clipPath>
</defs>
</svg>
