<svg xmlns="http://www.w3.org/2000/svg" viewBox="0 0 512 512"><circle cx="256" cy="256" r="207" fill="#f0c48a"/><path fill="#d3e6f8" d="M256 415.072c82.431-65.051 130.526-164.274 130.526-269.281v-.392L258.111 96.928l-132.638 48.471v.392c.001 105.007 48.096 204.23 130.527 269.281z"/><path fill="#fd919e" d="M373.944 237.822H258.111v175.56c56.624-45.414 96.751-107.068 115.833-175.56zm-248.47-92.031c0 31.451 4.319 62.381 12.578 92.031h120.059V96.928l-132.637 48.471v.392z"/><path fill="#4c4372" d="M255.999 421.072a5.993 5.993 0 0 1-3.716-1.29c-41.152-32.477-74.991-74.577-97.857-121.75-22.866-47.174-34.952-99.818-34.952-152.241v-.393a6 6 0 0 1 3.94-5.636l132.638-48.471a5.992 5.992 0 0 1 4.179.022l128.415 48.471a6 6 0 0 1 3.881 5.613v.393c0 52.423-12.086 105.067-34.952 152.241-22.866 47.173-56.705 89.273-97.857 121.749a5.99 5.99 0 0 1-3.719 1.292zM131.495 149.586c.567 49.364 12.2 98.797 33.729 143.212 21.387 44.122 52.718 83.65 90.776 114.587 38.058-30.937 69.388-70.465 90.774-114.587 21.536-44.429 33.169-93.88 33.729-143.259l-122.428-46.211-126.58 46.258z"/><path fill="#4c4372" d="M258.111 243.822h-120.06a6 6 0 0 1-5.78-4.39 349.015 349.015 0 0 1-12.798-93.642v-.393a6 6 0 0 1 3.94-5.636L256.051 91.29a6.002 6.002 0 0 1 8.06 5.636v140.895a6 6 0 0 1-6 6.001zm-115.47-12h109.471V105.509l-120.616 44.077a336.946 336.946 0 0 0 11.145 82.236z"/><path fill="#4c4372" d="M258.11 419.381a5.999 5.999 0 0 1-5.999-6V237.822a6 6 0 0 1 6-6h115.832a5.998 5.998 0 0 1 5.78 7.61 348.734 348.734 0 0 1-44.604 98.12 348.42 348.42 0 0 1-73.254 80.509 5.993 5.993 0 0 1-3.755 1.32zm6.001-175.559v156.756c48.275-41.738 83.267-95.57 101.838-156.756H264.111z"/><circle cx="258.111" cy="238.461" r="71.086" fill="#fff"/><path fill="#4c4372" d="M258.111 315.548c-42.506 0-77.087-34.581-77.087-77.087 0-42.505 34.581-77.086 77.087-77.086 42.505 0 77.086 34.581 77.086 77.086 0 42.506-34.581 77.087-77.086 77.087zm0-142.173c-35.889 0-65.087 29.197-65.087 65.086s29.198 65.087 65.087 65.087 65.086-29.198 65.086-65.087-29.197-65.086-65.086-65.086z"/><path fill="#4c4372" d="M254.569 272.399a5.979 5.979 0 0 1-4.242-1.758l-34.05-34.05a5.997 5.997 0 0 1 0-8.484 5.997 5.997 0 0 1 8.484 0l29.808 29.807 43.004-43.003a5.997 5.997 0 0 1 8.484 0 5.997 5.997 0 0 1 0 8.484l-47.246 47.246a5.977 5.977 0 0 1-4.242 1.758z"/></svg>