<svg xmlns="http://www.w3.org/2000/svg" viewBox="0 0 50 50"><path fill="#FFB95C" stroke="#682F2A" stroke-linecap="round" stroke-linejoin="round" stroke-miterlimit="10" d="M31.6 28.6c-.3.6-.7 1.1-1.3 1.7-2.9 2.9-7.7 2.9-10.6 0-.8-.8-1.3-1.6-1.7-2.6-2.1-.8-4.4-.7-6.4.4.6 2.4 1.8 4.7 3.7 6.5 5.4 5.4 14.1 5.4 19.5 0 1.8-1.8 3-3.9 3.6-6.1-2.3.6-4.6.7-6.8.1zm-13.2-7.2c.3-.6.7-1.1 1.2-1.6 2.9-2.9 7.7-2.9 10.6 0 .7.7 1.3 1.6 1.7 2.6 2.1.8 4.4.7 6.4-.4-.6-2.4-1.8-4.7-3.7-6.5-5.4-5.4-14.1-5.4-19.5 0-1.8 1.8-3 3.9-3.6 6.1 2.4-.7 4.7-.8 6.9-.2z"/><path fill="#6EB0FF" stroke="#682F2A" stroke-linecap="round" stroke-linejoin="round" stroke-miterlimit="10" d="M21.8 38.3c-.3.6-.7 1.1-1.3 1.6-2.9 2.9-7.7 2.9-10.6 0C7 37.1 7 32.3 10 29.4c2.9-2.9 7.7-2.9 10.6 0 .7.7 1.3 1.6 1.7 2.6 2.1.8 4.4.7 6.4-.4-.6-2.4-1.8-4.7-3.7-6.5-5.4-5.4-14.1-5.4-19.5 0s-5.4 14 0 19.4c5.4 5.3 14.1 5.3 19.5 0 1.8-1.8 3-3.9 3.6-6.2-2.2.5-4.5.6-6.8 0z"/><path fill="#FA4968" stroke="#682F2A" stroke-linecap="round" stroke-linejoin="round" stroke-miterlimit="10" d="M44.5 5.6C39.1.3 30.4.3 25 5.6c-1.8 1.8-3 3.9-3.6 6.2 2.2-.6 4.5-.6 6.7-.1.3-.6.7-1.1 1.2-1.6 2.9-2.9 7.7-2.9 10.6 0 2.9 2.9 2.9 7.7 0 10.6-2.9 2.9-7.7 2.9-10.6 0-.8-.8-1.3-1.6-1.7-2.6-2.1-.8-4.4-.7-6.4.4.6 2.4 1.8 4.7 3.7 6.5 5.4 5.4 14.1 5.4 19.5 0s5.4-14 .1-19.4z"/><path fill="none" stroke="#682F2A" stroke-linecap="round" stroke-linejoin="round" stroke-miterlimit="10" d="m35.3 40.2 1.4 3.2M38.9 38.9l3.3 3.3M40.2 35.3l3.2 1.4M14.7 9.8l-1.4-3.2M11.1 11.1 7.8 7.8M9.8 14.7l-3.2-1.4"/></svg>